<?xml version="1.0" encoding="UTF-8"?>
<svg version="1.1" xmlns="http://www.w3.org/2000/svg" width="225" height="225">
<path d="M0 0 C9.14308352 6.88402448 13.70953021 14.05932355 15.33984375 25.38671875 C15.57276815 29.99797932 15.61007347 34.60809792 15.63500977 39.22436523 C15.64646888 40.6951667 15.66682354 42.16592859 15.6965332 43.63647461 C15.94145821 55.79925898 15.203908 68.02027177 6.94921875 77.74609375 C-0.62749364 85.46992677 -10.54135123 88.54283338 -21.28515625 88.82421875 C-28.4945385 88.57983291 -38.16942707 87.51139932 -43.66015625 82.38671875 C-45.31761481 76.58561378 -45.31761481 76.58561378 -43.59765625 73.44921875 C-40.71147249 71.86647282 -38.94459688 72.0217809 -35.66015625 72.38671875 C-34.29831677 72.86542596 -32.94464616 73.36769511 -31.59765625 73.88671875 C-24.49291843 76.39497923 -16.1398739 76.91512616 -9.16015625 73.76171875 C-4.19547092 70.77662314 -1.34336383 67.27367301 0.65234375 61.76171875 C1.4729134 58.30751962 1.4729134 58.30751962 1.33984375 54.38671875 C0.83195312 54.79664063 0.3240625 55.2065625 -0.19921875 55.62890625 C-0.88757813 56.16773438 -1.5759375 56.7065625 -2.28515625 57.26171875 C-2.95804688 57.79539063 -3.6309375 58.3290625 -4.32421875 58.87890625 C-11.74117551 63.66644021 -21.14087165 63.38008227 -29.66015625 62.38671875 C-37.65190192 60.16103829 -45.4100788 54.21119632 -50.0390625 47.33984375 C-51.06557503 45.38530329 -51.89836042 43.45745658 -52.66015625 41.38671875 C-53.07265625 40.29359375 -53.48515625 39.20046875 -53.91015625 38.07421875 C-55.98122438 27.89146713 -54.60437767 19.13157076 -49.33984375 10.12890625 C-37.98954828 -6.18326702 -16.91695749 -10.25947642 0 0 Z M-37.09765625 13.76171875 C-41.48072804 21.12527936 -42.54774643 26.77469512 -41.66015625 35.38671875 C-40.57721758 38.80683147 -40.57721758 38.80683147 -38.66015625 41.38671875 C-37.79390625 42.68609375 -37.79390625 42.68609375 -36.91015625 44.01171875 C-32.31292189 48.86435502 -27.07023466 51.11926162 -20.47265625 51.63671875 C-12.81981319 51.13489298 -7.08071535 48.80727785 -1.66015625 43.38671875 C2.69146431 37.23442761 3.20721661 30.76426096 2.33984375 23.38671875 C-0.23051727 15.73962808 -3.81095141 11.50000768 -10.84765625 7.63671875 C-20.39187939 3.91819025 -29.90439027 6.75289549 -37.09765625 13.76171875 Z " fill="#26C527" transform="translate(97.66015625,114.61328125)"/>
<path d="M0 0 C2.07173721 3.0562616 2.2565796 5.64745655 2.2746582 9.28076172 C2.28419022 10.33641327 2.29372223 11.39206482 2.30354309 12.47970581 C2.30263168 13.61819977 2.30172028 14.75669373 2.30078125 15.9296875 C2.30506638 17.11160675 2.3093515 18.293526 2.31376648 19.51126099 C2.3195128 22.01791749 2.32000783 24.52459066 2.31567383 27.03125 C2.31254061 30.82582023 2.33587679 34.6195902 2.36132812 38.4140625 C2.45034871 71.68866508 2.45034871 71.68866508 -7 82 C-14.77935803 89.24089609 -21.80265789 92.56969362 -32.375 92.4375 C-33.64017456 92.42614014 -33.64017456 92.42614014 -34.9309082 92.41455078 C-41.06058055 92.25172672 -45.84102632 91.49408196 -51 88 C-51.67933594 87.59910156 -52.35867187 87.19820313 -53.05859375 86.78515625 C-60.06657596 82.21473307 -64.72618193 75.6130037 -66.94921875 67.5625 C-68.92888726 56.06276953 -67.72419201 47.18723479 -61.05078125 37.515625 C-55.78309178 31.05392591 -49.30330992 26.40904653 -41 25 C-32.49404983 24.20131923 -24.42450879 24.36466267 -17 29 C-15.31705014 30.65022281 -13.64868908 32.3155476 -12 34 C-11.98018066 33.14768799 -11.96036133 32.29537598 -11.93994141 31.41723633 C-11.86160496 28.23941676 -11.77490335 25.06196418 -11.68261719 21.88452148 C-11.64445712 20.51221419 -11.60958204 19.13981129 -11.578125 17.76733398 C-11.53219318 15.7886771 -11.47326363 13.81033558 -11.4140625 11.83203125 C-11.3826416 10.64327393 -11.3512207 9.4545166 -11.31884766 8.22973633 C-11.00534808 5.05417289 -10.52240041 2.79874661 -9 0 C-5.44712603 -1.18429132 -3.58589143 -0.99184231 0 0 Z M-50.3125 43.1875 C-54.18730963 48.14217461 -56.46010763 53.71345975 -55.875 60.0625 C-55.08537947 64.29928111 -53.82034036 68.08963922 -52 72 C-50.0162233 73.28436734 -50.0162233 73.28436734 -48 74 C-47.7525 74.639375 -47.505 75.27875 -47.25 75.9375 C-45.54946827 78.74337736 -43.38830594 79.45658497 -40.34765625 80.4609375 C-33.38900927 82.05876326 -27.26540436 81.5464553 -21 78 C-15.08663313 73.94301233 -12.29859089 69.99530947 -10.46484375 62.94140625 C-9.26050298 56.38184145 -10.79653291 50.78718987 -14 45 C-18.57982744 39.56449355 -23.40334198 36.44620871 -30.53515625 35.75390625 C-38.82091086 35.37779909 -44.55436888 37.11888142 -50.3125 43.1875 Z " fill="#EC7212" transform="translate(111,15)"/>
<path d="M0 0 C6.98943055 4.65498854 12.27443064 11.65622842 14.34521484 19.8605957 C14.9444019 23.5656003 15.01386627 27.22914558 15.05078125 30.97265625 C15.058853 31.75515244 15.06692474 32.53764862 15.07524109 33.34385681 C15.08902205 34.99199239 15.09977076 36.64015579 15.10766602 38.28833008 C15.11923488 39.97298549 15.1397634 41.65760289 15.16918945 43.34204102 C15.21177284 45.78166491 15.22801582 48.2202074 15.23828125 50.66015625 C15.25578934 51.41128189 15.27329742 52.16240753 15.29133606 52.93629456 C15.27680176 56.43530916 15.06951981 58.39779275 12.98120117 61.25952148 C10.8125 62.75 10.8125 62.75 7.6875 62.6875 C4.8125 61.75 4.8125 61.75 2.8125 58.75 C2.41862212 56.42612053 2.07763915 54.09206251 1.8125 51.75 C1.07 52.513125 0.3275 53.27625 -0.4375 54.0625 C-6.4872029 59.97470966 -11.54722889 61.80982142 -19.9375 62.125 C-29.55857218 61.93257856 -38.29173306 58.52938269 -45.1875 51.75 C-50.58514895 45.58430614 -53.45926256 39.92244233 -54.1875 31.75 C-54.25710937 31.07195312 -54.32671875 30.39390625 -54.3984375 29.6953125 C-54.88528817 20.37024973 -51.12411623 11.77949331 -45.1875 4.75 C-32.74700646 -7.49952105 -14.7290027 -8.42054305 0 0 Z M-37.5625 13.625 C-41.71489692 19.75204219 -42.99438109 25.42600238 -42.1875 32.75 C-40.57673505 39.31063389 -37.63522981 43.91420264 -32.1875 48 C-26.4588 51.34174167 -20.69860847 51.25014204 -14.1875 50.75 C-7.25872485 48.67136745 -2.04594492 44.7474918 1.75 38.625 C3.91280148 32.5799027 3.95579736 24.86847893 1.625 18.875 C-2.08670856 12.47550249 -5.95999523 7.81169207 -13.1875 5.75 C-23.2414755 4.518388 -31.0714964 5.49957104 -37.5625 13.625 Z " fill="#10BAEF" transform="translate(169.1875,45.25)"/>
<path d="M0 0 C1.21816406 0.08701172 1.21816406 0.08701172 2.4609375 0.17578125 C11.9073611 1.41245816 20.05603609 7.77688892 25.85546875 15.1640625 C30.90108781 23.25771765 31.89882849 33.04413687 29.8125 42.1875 C26.90469774 52.30665186 21.87386295 58.65861287 12.84765625 64.359375 C4.62353941 68.71610484 -5.20259475 69.239021 -14.25 67.25 C-23.65216305 64.11594565 -30.80410599 58.5666523 -35.95703125 50.125 C-40.37136085 41.13101011 -40.5239548 30.54705637 -37.4375 21.0625 C-34.22751127 13.45573094 -28.39313042 6.80465191 -21 3 C-14.04978907 0.34414128 -7.39662748 -0.62225596 0 0 Z M-19.42578125 17.05859375 C-24.16960642 22.2013512 -26.6608303 26.33696727 -27.3125 33.375 C-26.74655658 39.93994367 -24.33419983 45.99900019 -20 51 C-13.37984355 55.68104346 -7.0040803 57.13114499 1 56 C7.15041126 54.37842264 11.99793421 50.95507811 15.25 45.5 C18.48482932 39.03034136 18.89484369 33.38071228 16.75 26.375 C14.41430751 19.97628895 10.92658363 16.37001814 5 13 C-3.85797808 9.9455248 -12.12165822 10.86008677 -19.42578125 17.05859375 Z " fill="#F8C10A" transform="translate(154,110)"/>
<path d="M0 0 C2.07173721 3.0562616 2.2565796 5.64745655 2.2746582 9.28076172 C2.28419022 10.33641327 2.29372223 11.39206482 2.30354309 12.47970581 C2.30263168 13.61819977 2.30172028 14.75669373 2.30078125 15.9296875 C2.30506638 17.11160675 2.3093515 18.293526 2.31376648 19.51126099 C2.3195128 22.01791749 2.32000783 24.52459066 2.31567383 27.03125 C2.31254061 30.82582023 2.33587679 34.6195902 2.36132812 38.4140625 C2.45034871 71.68866508 2.45034871 71.68866508 -7 82 C-14.77935803 89.24089609 -21.80265789 92.56969362 -32.375 92.4375 C-33.64017456 92.42614014 -33.64017456 92.42614014 -34.9309082 92.41455078 C-41.06058055 92.25172672 -45.84102632 91.49408196 -51 88 C-51.67933594 87.59910156 -52.35867187 87.19820313 -53.05859375 86.78515625 C-60.06657596 82.21473307 -64.72618193 75.6130037 -66.94921875 67.5625 C-68.92888726 56.06276953 -67.72419201 47.18723479 -61.05078125 37.515625 C-55.78309178 31.05392591 -49.30330992 26.40904653 -41 25 C-32.49404983 24.20131923 -24.42450879 24.36466267 -17 29 C-15.31705014 30.65022281 -13.64868908 32.3155476 -12 34 C-11.98018066 33.14768799 -11.96036133 32.29537598 -11.93994141 31.41723633 C-11.86160496 28.23941676 -11.77490335 25.06196418 -11.68261719 21.88452148 C-11.64445712 20.51221419 -11.60958204 19.13981129 -11.578125 17.76733398 C-11.53219318 15.7886771 -11.47326363 13.81033558 -11.4140625 11.83203125 C-11.3826416 10.64327393 -11.3512207 9.4545166 -11.31884766 8.22973633 C-11.00534808 5.05417289 -10.52240041 2.79874661 -9 0 C-5.44712603 -1.18429132 -3.58589143 -0.99184231 0 0 Z M-8 1 C-9.55977064 4.11954128 -9.12104126 7.42959384 -9.09765625 10.8515625 C-9.09553383 12.01261002 -9.09553383 12.01261002 -9.09336853 13.19711304 C-9.08776403 15.67311442 -9.07521083 18.14902588 -9.0625 20.625 C-9.05748558 22.30208203 -9.05292257 23.97916547 -9.04882812 25.65625 C-9.03779315 29.77086806 -9.02052554 33.88541878 -9 38 C-10.98 38 -12.96 38 -15 38 C-15 37.34 -15 36.68 -15 36 C-15.99 36.33 -16.98 36.66 -18 37 C-17.2575 37.598125 -16.515 38.19625 -15.75 38.8125 C-10.36836468 44.27079679 -8.7637833 51.87371522 -8.625 59.3125 C-8.69895971 64.73374673 -9.31519348 69.24246802 -13.171875 73.265625 C-14.02265625 73.92046875 -14.8734375 74.5753125 -15.75 75.25 C-16.59046875 75.91515625 -17.4309375 76.5803125 -18.296875 77.265625 C-25.34636879 81.78871061 -33.25030087 82.05411151 -41.34375 80.5703125 C-46.69810464 78.90222509 -50.03956592 75.70514131 -53 71 C-54.15415782 68.3692678 -55.06213684 65.71980316 -56 63 C-56.66 62.67 -57.32 62.34 -58 62 C-57.98839844 61.08476563 -57.97679687 60.16953125 -57.96484375 59.2265625 C-57.95582031 58.03804687 -57.94679688 56.84953125 -57.9375 55.625 C-57.92589844 54.44164062 -57.91429687 53.25828125 -57.90234375 52.0390625 C-57.78533407 49.08078479 -57.78533407 49.08078479 -59 47 C-58.01 47 -57.02 47 -56 47 C-56 46.34 -56 45.68 -56 45 C-55.34 45 -54.68 45 -54 45 C-54.33 43.68 -54.66 42.36 -55 41 C-53.68 41 -52.36 41 -51 41 C-51 39.35 -51 37.7 -51 36 C-53.475 36.495 -53.475 36.495 -56 37 C-56 37.66 -56 38.32 -56 39 C-56.99 39 -57.98 39 -59 39 C-59.45375 40.010625 -59.9075 41.02125 -60.375 42.0625 C-60.63023438 42.63097656 -60.88546875 43.19945312 -61.1484375 43.78515625 C-63.3373498 49.47833641 -64.2748621 54.52135352 -64.25 60.625 C-64.25515625 61.89601562 -64.2603125 63.16703125 -64.265625 64.4765625 C-64.0161372 67.78594474 -63.43113497 70.03550613 -62 73 C-61.34 73 -60.68 73 -60 73 C-59.9175 74.11375 -59.835 75.2275 -59.75 76.375 C-59.42126213 80.05753944 -59.42126213 80.05753944 -56.9375 81.4375 C-55.9784375 81.7159375 -55.9784375 81.7159375 -55 82 C-55 82.66 -55 83.32 -55 84 C-47.38592428 90.31806283 -38.93172218 91.44794652 -29.34375 91.3359375 C-24.19287952 90.8184435 -19.69708969 89.10851321 -15 87 C-15 86.34 -15 85.68 -15 85 C-14.443125 84.773125 -13.88625 84.54625 -13.3125 84.3125 C-5.97983842 80.1507191 -2.23233046 72.87186636 0 65 C0.29209897 61.85762981 0.29209897 61.85762981 0.24291992 58.55151367 C0.24599655 57.29388718 0.24907318 56.03626068 0.25224304 54.74052429 C0.24534797 53.38300389 0.23808121 52.02548532 0.23046875 50.66796875 C0.22927556 49.26646466 0.22882408 47.86495977 0.2290802 46.4634552 C0.22752139 43.53751567 0.21927394 40.61169953 0.20581055 37.68579102 C0.18874277 33.92842675 0.18499876 30.17119683 0.18575573 26.41379833 C0.18548453 23.52542327 0.18001264 20.63707779 0.17275429 17.74871254 C0.16956582 16.36237118 0.1675998 14.97602646 0.16686058 13.58968163 C0.16470337 11.66028008 0.15517549 9.73089096 0.14526367 7.80151367 C0.14145187 6.70264328 0.13764008 5.60377289 0.13371277 4.47160339 C0.27897442 2.05634911 0.27897442 2.05634911 -1 1 C-3.33297433 0.95907063 -5.66705225 0.95758277 -8 1 Z M-50.3125 43.1875 C-54.18730963 48.14217461 -56.46010763 53.71345975 -55.875 60.0625 C-55.08537947 64.29928111 -53.82034036 68.08963922 -52 72 C-50.0162233 73.28436734 -50.0162233 73.28436734 -48 74 C-47.7525 74.639375 -47.505 75.27875 -47.25 75.9375 C-45.54946827 78.74337736 -43.38830594 79.45658497 -40.34765625 80.4609375 C-33.38900927 82.05876326 -27.26540436 81.5464553 -21 78 C-15.08663313 73.94301233 -12.29859089 69.99530947 -10.46484375 62.94140625 C-9.26050298 56.38184145 -10.79653291 50.78718987 -14 45 C-18.57982744 39.56449355 -23.40334198 36.44620871 -30.53515625 35.75390625 C-38.82091086 35.37779909 -44.55436888 37.11888142 -50.3125 43.1875 Z " fill="#F7CEA4" transform="translate(111,15)"/>
<path d="M0 0 C3.23757899 4.85636848 3.18784033 9.03683076 3.23828125 14.69140625 C3.246353 15.55128647 3.25442474 16.41116669 3.26274109 17.29710388 C3.27657365 19.12033072 3.28729951 20.94358336 3.29516602 22.7668457 C3.30664478 24.61816068 3.32703101 26.46944365 3.35668945 28.32055664 C3.6690855 47.82349389 3.6690855 47.82349389 -1 56 C-1.515625 57.051875 -2.03125 58.10375 -2.5625 59.1875 C-8.23609232 65.73395268 -16.41023915 70.36962837 -25.09790039 71.20068359 C-27.3615204 71.30335913 -29.60915849 71.32851217 -31.875 71.3125 C-33.06428101 71.30730347 -33.06428101 71.30730347 -34.27758789 71.30200195 C-40.55471272 71.18519722 -46.69062192 70.80841717 -51.703125 66.5546875 C-53 65 -53 65 -53.3125 62.4375 C-53 60 -53 60 -51 58 C-48.24810382 58.30576624 -45.92758891 59.02779308 -43.34375 60.01953125 C-35.20101093 62.4071802 -24.88638097 62.45279373 -17.125 58.8125 C-13.60515222 56.70772616 -11.74164531 54.77356484 -10 51 C-9.33226562 50.41476563 -8.66453125 49.82953125 -7.9765625 49.2265625 C-5.45689431 46.3882011 -5.4171719 44.68493687 -5.25 40.9375 C-5.16492188 39.37322266 -5.16492188 39.37322266 -5.078125 37.77734375 C-5.02397041 35.85214795 -5 33.92595732 -5 32 C-6.32 31.67 -7.64 31.34 -9 31 C-8.67 29.68 -8.34 28.36 -8 27 C-7.34 27 -6.68 27 -6 27 C-5.27945952 21.33861055 -4.61726196 15.67355671 -4 10 C-2.68 11.32 -1.36 12.64 0 14 C0 9.38 0 4.76 0 0 Z " fill="#21C722" transform="translate(108,130)"/>
<path d="M0 0 C1.21816406 0.08701172 1.21816406 0.08701172 2.4609375 0.17578125 C11.9073611 1.41245816 20.05603609 7.77688892 25.85546875 15.1640625 C30.90108781 23.25771765 31.89882849 33.04413687 29.8125 42.1875 C27.56105021 50.10814093 24.16001035 55.509556 18 61 C17.34 61 16.68 61 16 61 C16 60.34 16 59.68 16 59 C16.7425 58.525625 17.485 58.05125 18.25 57.5625 C22.31943906 53.7705227 23.31895368 49.19146659 25 44 C25.495 43.01 25.495 43.01 26 42 C26.81947335 31.25280857 26.23442309 21.54473952 19 13 C16.41501488 11.73152315 16.41501488 11.73152315 14 11 C14 10.34 14 9.68 14 9 C11.525 8.505 11.525 8.505 9 8 C9.27617533 9.94074861 9.27617533 9.94074861 10 12 C10.99 12.66 11.98 13.32 13 14 C13 14.66 13 15.32 13 16 C13.66 16 14.32 16 15 16 C19.70037395 24.72926591 20.90597664 35.04879106 18.26953125 44.6640625 C16.38149449 48.77921201 13.80380361 51.59759772 10 54 C9.34 54 8.68 54 8 54 C8 54.66 8 55.32 8 56 C-0.14601745 58.4136348 -7.96311155 59.38395303 -16 56 C-16 55.34 -16 54.68 -16 54 C-16.721875 53.79375 -17.44375 53.5875 -18.1875 53.375 C-22.68357483 51.17691897 -25.10135105 47.7972979 -27.3125 43.375 C-28.9464033 35.35402017 -28.84208801 28.27071804 -24.984375 20.96484375 C-23.81625494 18.85761098 -23.81625494 18.85761098 -23.375 15.6875 C-21.44448676 11.91422411 -19.27414634 11.0797838 -15.3515625 9.6796875 C-8.33039293 8.25581395 -1.12520557 8.72058017 6 9 C6 8.01 6 7.02 6 6 C5.34 6 4.68 6 4 6 C3.505 5.01 3.505 5.01 3 4 C-6.79121515 3.41252709 -13.46759521 3.90231553 -22 9 C-23.26398077 9.45692036 -24.53446034 9.89652135 -25.8125 10.3125 C-31.01206859 13.06521278 -32.97269399 17.45328686 -35.1171875 22.76953125 C-36.13982191 26.5116492 -36.34391849 30.02509691 -36.3125 33.875 C-36.30512817 34.93835571 -36.30512817 34.93835571 -36.29760742 36.02319336 C-36.1030302 44.69335458 -33.33909427 50.2919072 -28 57 C-27.34 57.33 -26.68 57.66 -26 58 C-26 58.66 -26 59.32 -26 60 C-31.75112456 57.86995387 -34.81216258 52.87240385 -37.3125 47.5625 C-40.77042876 38.19080736 -40.18900727 27.58279715 -36.328125 18.43359375 C-31.74826304 10.04167022 -24.81562487 3.96060123 -15.6875 1.1875 C-10.35752335 -0.09402444 -5.45436034 -0.45885889 0 0 Z M-19.42578125 17.05859375 C-24.16960642 22.2013512 -26.6608303 26.33696727 -27.3125 33.375 C-26.74655658 39.93994367 -24.33419983 45.99900019 -20 51 C-13.37984355 55.68104346 -7.0040803 57.13114499 1 56 C7.15041126 54.37842264 11.99793421 50.95507811 15.25 45.5 C18.48482932 39.03034136 18.89484369 33.38071228 16.75 26.375 C14.41430751 19.97628895 10.92658363 16.37001814 5 13 C-3.85797808 9.9455248 -12.12165822 10.86008677 -19.42578125 17.05859375 Z " fill="#EAC33C" transform="translate(154,110)"/>
<path d="M0 0 C0.495 1.98 0.495 1.98 1 4 C-0.13179687 4.19335938 -1.26359375 4.38671875 -2.4296875 4.5859375 C-3.91153202 4.84854286 -5.39329892 5.11158648 -6.875 5.375 C-7.62136719 5.50132813 -8.36773437 5.62765625 -9.13671875 5.7578125 C-13.50990532 6.45268694 -13.50990532 6.45268694 -17 9 C-17.99 9 -18.98 9 -20 9 C-20.10183594 9.57492188 -20.20367187 10.14984375 -20.30859375 10.7421875 C-21.11734398 13.38319106 -22.39732271 14.92838315 -24.0625 17.125 C-28.46822976 24.30431267 -28.46191387 32.85926188 -27 41 C-25.263171 45.40330686 -23.17006237 48.71709739 -19.05078125 51.15234375 C-12.08191529 54.03280835 -4.44328901 54.47131779 3 55 C3 54.34 3 53.68 3 53 C4.45706726 52.49632243 5.91570096 51.99717444 7.375 51.5 C8.18710938 51.2215625 8.99921875 50.943125 9.8359375 50.65625 C12 50 12 50 14 50 C13.37498605 51.68272986 12.69822617 53.34630643 12 55 C11.4740625 56.299375 11.4740625 56.299375 10.9375 57.625 C7.96915267 61.26361931 4.52035341 62.1098381 0 63 C-5.72912504 63.55054655 -10.63077361 63.2607269 -16 61 C-16 60.34 -16 59.68 -16 59 C-16.556875 58.896875 -17.11375 58.79375 -17.6875 58.6875 C-20.50114022 57.85101237 -22.62146979 56.71782737 -25 55 C-25 54.01 -25 53.02 -25 52 C-25.66 52 -26.32 52 -27 52 C-30.9405549 48.91475934 -31.78590245 46.07048775 -32.75 41.25 C-32.99234375 40.07953125 -33.2346875 38.9090625 -33.484375 37.703125 C-33.65453125 36.81109375 -33.8246875 35.9190625 -34 35 C-34.05168915 38.79269127 -33.69466622 42.26616906 -33 46 C-35 45 -35 45 -36.1015625 42.4921875 C-37.18401439 38.28474408 -37.3677796 34.45001986 -37.375 30.125 C-37.39949219 29.36058594 -37.42398438 28.59617187 -37.44921875 27.80859375 C-37.47943888 21.87537489 -35.95765989 18.13206598 -33 13 C-32.01 13 -31.02 13 -30 13 C-29.814375 12.4225 -29.62875 11.845 -29.4375 11.25 C-27.2974742 7.90039441 -24.49352575 6.87153165 -21 5 C-20.34 4.34 -19.68 3.68 -19 3 C-12.66639113 0.67554422 -6.7175996 -0.38024149 0 0 Z " fill="#10BBEE" transform="translate(154,43)"/>
<path d="M0 0 C19.53191489 -0.95744681 19.53191489 -0.95744681 28 5 C28 5.66 28 6.32 28 7 C28.721875 7 29.44375 7 30.1875 7 C34.00612199 8.35773226 35.0241184 10.42460254 36.99609375 13.85546875 C38.25365554 16.54185562 38.7787094 19.04945868 39 22 C38.34 22 37.68 22 37 22 C36.67 22.66 36.34 23.32 36 24 C35.70867187 23.40832031 35.41734375 22.81664062 35.1171875 22.20703125 C32.1012843 16.39335621 29.45727273 11.68701558 23.0390625 9.2578125 C15.05828776 7.15457584 5.42798831 6.49277753 -2.25390625 9.89453125 C-7.73176264 13.36261482 -11.1662494 18.88749801 -13 25 C-14.12691211 33.12628846 -12.49059339 39.17480834 -8 46 C-6.70317626 47.36886951 -5.38176866 48.7169291 -4 50 C-3.25 52.25 -3.25 52.25 -3 54 C-4.6875 55.125 -4.6875 55.125 -7 56 C-9.6875 55.375 -9.6875 55.375 -12 54 C-12.33333333 52.66666667 -12.66666667 51.33333333 -13 50 C-13.78375 49.773125 -14.5675 49.54625 -15.375 49.3125 C-18.35319097 47.82340452 -18.63436691 47.35697323 -19.8125 44.375 C-22.47415838 34.99075303 -22.38263529 23.76527057 -18 15 C-17.34 15 -16.68 15 -16 15 C-16 14.01 -16 13.02 -16 12 C-15.34 12 -14.68 12 -14 12 C-13.95875 11.40445313 -13.9175 10.80890625 -13.875 10.1953125 C-12.53737864 6.83931605 -10.21951272 6.32529936 -7 4.875 C-2.739148 3.26065068 -2.739148 3.26065068 0 0 Z " fill="#0BD40C" transform="translate(68,113)"/>
<path d="M0 0 C9.14308352 6.88402448 13.70953021 14.05932355 15.33984375 25.38671875 C15.57276815 29.99797932 15.61007347 34.60809792 15.63500977 39.22436523 C15.64646888 40.6951667 15.66682354 42.16592859 15.6965332 43.63647461 C15.94145821 55.79925898 15.203908 68.02027177 6.94921875 77.74609375 C-0.62749364 85.46992677 -10.54135123 88.54283338 -21.28515625 88.82421875 C-28.4945385 88.57983291 -38.16942707 87.51139932 -43.66015625 82.38671875 C-45.31761481 76.58561378 -45.31761481 76.58561378 -43.59765625 73.44921875 C-40.71147249 71.86647282 -38.94459688 72.0217809 -35.66015625 72.38671875 C-34.29831677 72.86542596 -32.94464616 73.36769511 -31.59765625 73.88671875 C-24.49291843 76.39497923 -16.1398739 76.91512616 -9.16015625 73.76171875 C-4.19547092 70.77662314 -1.34336383 67.27367301 0.65234375 61.76171875 C1.4729134 58.30751962 1.4729134 58.30751962 1.33984375 54.38671875 C0.83195312 54.79664063 0.3240625 55.2065625 -0.19921875 55.62890625 C-0.88757813 56.16773438 -1.5759375 56.7065625 -2.28515625 57.26171875 C-2.95804688 57.79539063 -3.6309375 58.3290625 -4.32421875 58.87890625 C-11.74117551 63.66644021 -21.14087165 63.38008227 -29.66015625 62.38671875 C-37.65190192 60.16103829 -45.4100788 54.21119632 -50.0390625 47.33984375 C-51.06557503 45.38530329 -51.89836042 43.45745658 -52.66015625 41.38671875 C-53.07265625 40.29359375 -53.48515625 39.20046875 -53.91015625 38.07421875 C-55.98122438 27.89146713 -54.60437767 19.13157076 -49.33984375 10.12890625 C-37.98954828 -6.18326702 -16.91695749 -10.25947642 0 0 Z M-41.66015625 3.38671875 C-41.66015625 4.04671875 -41.66015625 4.70671875 -41.66015625 5.38671875 C-42.26601563 5.62777344 -42.871875 5.86882812 -43.49609375 6.1171875 C-46.12307165 7.65828464 -46.88805953 9.0176944 -48.28515625 11.69921875 C-48.68992187 12.45847656 -49.0946875 13.21773437 -49.51171875 14 C-53.39739633 22.07533674 -54.12964893 30.41676702 -51.53515625 39.13671875 C-48.05655658 48.02102966 -42.70484467 54.90862619 -34.09765625 59.13671875 C-24.70491425 62.5522613 -15.90975074 62.47014491 -6.75390625 58.45703125 C-4.45117823 57.33058829 -4.45117823 57.33058829 -1.66015625 55.38671875 C-1.66015625 54.72671875 -1.66015625 54.06671875 -1.66015625 53.38671875 C-1.00015625 53.38671875 -0.34015625 53.38671875 0.33984375 53.38671875 C1.71295082 52.09438268 3.05019199 50.76234729 4.33984375 49.38671875 C1.12077986 68.33529936 1.12077986 68.33529936 -4.54296875 72.90625 C-12.2885745 77.67176676 -20.90321871 77.2268997 -29.66015625 76.38671875 C-32.54113328 75.6242284 -34.93407495 74.61612796 -37.66015625 73.38671875 C-40.44464318 73.80258986 -40.44464318 73.80258986 -42.66015625 75.38671875 C-42.72696634 78.84098017 -42.72696634 78.84098017 -41.66015625 82.38671875 C-33.52377183 87.93425358 -22.11522708 87.16684712 -12.66015625 86.38671875 C-5.54356857 84.93180889 1.32903801 81.75055853 6.33984375 76.38671875 C8.35770917 73.17975406 9.90768084 69.88941175 11.33984375 66.38671875 C11.68370117 65.69489502 12.02755859 65.00307129 12.38183594 64.2902832 C13.69319197 60.31577829 13.66450182 56.62516665 13.67578125 52.46484375 C13.68243805 51.60542175 13.68909485 50.74599976 13.69595337 49.86053467 C13.70605646 48.04506563 13.71077112 46.22955962 13.71044922 44.4140625 C13.71480767 41.65952043 13.75111013 38.90660112 13.7890625 36.15234375 C13.7949344 34.38151584 13.79890129 32.61068039 13.80078125 30.83984375 C13.81515228 30.02702942 13.82952332 29.21421509 13.84432983 28.37677002 C13.783138 20.58006949 10.84306173 13.73216227 6.33984375 7.38671875 C5.67984375 7.38671875 5.01984375 7.38671875 4.33984375 7.38671875 C3.84484375 5.90171875 3.84484375 5.90171875 3.33984375 4.38671875 C1.23144302 2.76846504 1.23144302 2.76846504 -1.34765625 1.32421875 C-2.19714844 0.81761719 -3.04664063 0.31101562 -3.921875 -0.2109375 C-15.84931485 -6.31928401 -31.16426895 -5.17571562 -41.66015625 3.38671875 Z " fill="#C8F9C7" transform="translate(97.66015625,114.61328125)"/>
<path d="M0 0 C1.32 0 2.64 0 4 0 C4.06962768 8.24090676 4.12287576 16.48168982 4.15543652 24.72281837 C4.17106708 28.549856 4.19225718 32.37669179 4.22631836 36.20361328 C4.25900562 39.8994583 4.27687263 43.59510965 4.28463173 47.2910881 C4.29015851 48.69844993 4.30095101 50.10580161 4.31719017 51.5130806 C4.33908635 53.48989706 4.34022644 55.46690996 4.34057617 57.44384766 C4.34723801 58.56747711 4.35389984 59.69110657 4.36076355 60.8487854 C3.94348935 64.49361193 2.93331607 66.894677 1 70 C-1.6875 70.875 -1.6875 70.875 -4 71 C-3.9278125 70.41734375 -3.855625 69.8346875 -3.78125 69.234375 C-1.77031828 51.89203698 -1.77031828 51.89203698 -8.37890625 36.203125 C-9.83461396 34.67378447 -9.83461396 34.67378447 -12 33 C-10.515 32.505 -10.515 32.505 -9 32 C-9 32.66 -9 33.32 -9 34 C-6.03 33.505 -6.03 33.505 -3 33 C-2.970271 31.6070874 -2.970271 31.6070874 -2.93994141 30.18603516 C-2.86191387 26.7454948 -2.77522538 23.30540109 -2.68261719 19.86523438 C-2.64430002 18.37541111 -2.60945192 16.88549446 -2.578125 15.39550781 C-2.53253271 13.25551952 -2.47453126 11.11617564 -2.4140625 8.9765625 C-2.3826416 7.68830566 -2.3512207 6.40004883 -2.31884766 5.07275391 C-2 2 -2 2 0 0 Z " fill="#F76F09" transform="translate(105,19)"/>
<path d="M0 0 C7.00047964 4.16695217 11.92947687 9.16576083 14.41333008 17.0456543 C15.58608433 22.95139681 15.36259779 28.98810313 15.28125 34.9855957 C15.24983827 37.32454286 15.24024302 39.66281493 15.234375 42.00195312 C15.22521267 43.49740404 15.21483936 44.99284814 15.203125 46.48828125 C15.19675018 47.53052605 15.19675018 47.53052605 15.19024658 48.59382629 C15.14197469 51.86647365 14.99709268 54.8683497 14 58 C12.125 58.625 12.125 58.625 10 59 C8 57 8 57 7.8046875 54.8359375 C7.83949219 53.61777344 7.83949219 53.61777344 7.875 52.375 C7.89304688 51.55773437 7.91109375 50.74046875 7.9296875 49.8984375 C7.96449219 48.95871094 7.96449219 48.95871094 8 48 C7.34 48 6.68 48 6 48 C4.9375 46.125 4.9375 46.125 4 44 C4.33 43.34 4.66 42.68 5 42 C5.165 40.824375 5.33 39.64875 5.5 38.4375 C6 35 6 35 7 34 C7.61684967 26.58594141 7.02170336 20.76861554 4 14 C3.64253306 12.6729332 3.30280985 11.34059505 3 10 C3.99 10 4.98 10 6 10 C5.80528889 8.05000871 5.80528889 8.05000871 5 6 C4.34 5.67 3.68 5.34 3 5 C1 4 1 4 0.25 1.875 C0.1675 1.25625 0.085 0.6375 0 0 Z " fill="#07BEF6" transform="translate(167,46)"/>
<path d="M0 0 C0.68835938 0.01353516 1.37671875 0.02707031 2.0859375 0.04101562 C3.76597001 0.0760163 5.4455935 0.12981046 7.125 0.1875 C7.62 1.6725 7.62 1.6725 8.125 3.1875 C8.785 3.1875 9.445 3.1875 10.125 3.1875 C10.125 4.1775 10.125 5.1675 10.125 6.1875 C8.94164062 6.22488281 7.75828125 6.26226562 6.5390625 6.30078125 C-1.96176806 6.63243768 -9.87148955 6.99011769 -17.875 10.1875 C-17.84664062 10.97253906 -17.81828125 11.75757812 -17.7890625 12.56640625 C-17.89547096 15.81186424 -18.89870236 16.67912222 -20.875 19.1875 C-21.59851427 21.16764432 -22.27765389 23.16571315 -22.875 25.1875 C-23.865 25.1875 -24.855 25.1875 -25.875 25.1875 C-25.875 29.8075 -25.875 34.4275 -25.875 39.1875 C-26.535 39.1875 -27.195 39.1875 -27.875 39.1875 C-27.875 41.80863708 -27.56207555 43.69685112 -26.875 46.1875 C-26.215 46.1875 -25.555 46.1875 -24.875 46.1875 C-25.205 47.5075 -25.535 48.8275 -25.875 50.1875 C-31.01197318 41.40493295 -31.01197318 41.40493295 -30.97265625 36.17578125 C-30.96943359 35.41845703 -30.96621094 34.66113281 -30.96289062 33.88085938 C-30.95451172 33.09517578 -30.94613281 32.30949219 -30.9375 31.5 C-30.93298828 30.70271484 -30.92847656 29.90542969 -30.92382812 29.08398438 C-30.9120585 27.11845743 -30.89412348 25.15296915 -30.875 23.1875 C-30.215 23.1875 -29.555 23.1875 -28.875 23.1875 C-28.93300781 22.53523438 -28.99101563 21.88296875 -29.05078125 21.2109375 C-29.28689639 16.63705002 -29.26412561 13.8879261 -27 9.8125 C-24.02908519 6.80772862 -20.40855038 5.51055473 -16.47265625 4.14453125 C-13.76859183 3.22802913 -13.76859183 3.22802913 -11.05078125 1.5859375 C-7.26897589 -0.07935933 -4.04331223 -0.15279959 0 0 Z " fill="#F6C014" transform="translate(149.875,112.8125)"/>
<path d="M0 0 C2.61101296 1.30550648 2.68108561 2.17581137 3.59765625 4.9140625 C5.63667016 12.14130551 5.48564075 19.46404058 5.44604492 26.91552734 C5.43744399 29.39112158 5.46652436 31.86447116 5.49804688 34.33984375 C5.49965705 35.92187431 5.49908488 37.50390894 5.49609375 39.0859375 C5.50732773 39.82137787 5.51856171 40.55681824 5.53013611 41.31454468 C5.48307207 44.76706956 5.23262337 46.68337976 3.16430664 49.49853516 C1 51 1 51 -2.125 50.9375 C-5 50 -5 50 -7 47 C-7.39387788 44.67612053 -7.73486085 42.34206251 -8 40 C-8.7425 40.763125 -9.485 41.52625 -10.25 42.3125 C-16.2997029 48.22470966 -21.35972889 50.05982142 -29.75 50.375 C-39.37107218 50.18257856 -48.10423306 46.77938269 -55 40 C-62.47924386 31.4565159 -64.56704842 23.15195223 -64 12 C-63.5 9 -63.5 9 -63 7 C-62.67 7 -62.34 7 -62 7 C-61.92652344 8.84464844 -61.92652344 8.84464844 -61.8515625 10.7265625 C-61.77648971 12.35939566 -61.70094385 13.99220712 -61.625 15.625 C-61.5940625 16.43324219 -61.563125 17.24148437 -61.53125 18.07421875 C-61.3047054 22.71838314 -60.7407332 26.62693856 -59 31 C-59.16371094 30.36707031 -59.32742187 29.73414062 -59.49609375 29.08203125 C-60.17453601 24.93248907 -60.10555375 20.88358502 -60.0625 16.6875 C-60.05798828 15.85154297 -60.05347656 15.01558594 -60.04882812 14.15429688 C-60.03710548 12.10283351 -60.01917203 10.05140727 -60 8 C-59.67 8 -59.34 8 -59 8 C-58.96261719 8.78761719 -58.92523438 9.57523438 -58.88671875 10.38671875 C-58.40557317 18.35864066 -57.68180031 26.42448715 -55 34 C-54.01 34.66 -53.02 35.32 -52 36 C-52 36.66 -52 37.32 -52 38 C-51.34 38 -50.68 38 -50 38 C-50 38.99 -50 39.98 -50 41 C-48.88625 41.433125 -48.88625 41.433125 -47.75 41.875 C-45.43260203 42.82302644 -43.22082885 43.84845911 -41 45 C-41 45.66 -41 46.32 -41 47 C-32.40904513 48.80862208 -24.42292399 48.27866543 -16 46 C-15.86335938 45.38640625 -15.72671875 44.7728125 -15.5859375 44.140625 C-14.86970363 41.52398394 -13.84092356 39.98253307 -12 38 C-11.01 38 -10.02 38 -9 38 C-9 37.34 -9 36.68 -9 36 C-7.35 36.33 -5.7 36.66 -4 37 C-3.505 41.455 -3.505 41.455 -3 46 C-1.35 46.33 0.3 46.66 2 47 C2.04965427 41.71640371 2.08583957 36.43294504 2.10986328 31.14916992 C2.1198846 29.35389844 2.13350533 27.55864312 2.15087891 25.76342773 C2.17529809 23.17427565 2.18652198 20.58534049 2.1953125 17.99609375 C2.20563507 17.20101913 2.21595764 16.40594452 2.22659302 15.58677673 C2.22757215 10.65901919 1.51201224 6.68813484 0 2 C0 1.34 0 0.68 0 0 Z " fill="#4EB4D0" transform="translate(179,57)"/>
<path d="M0 0 C2.07173721 3.0562616 2.2565796 5.64745655 2.2746582 9.28076172 C2.28419022 10.33641327 2.29372223 11.39206482 2.30354309 12.47970581 C2.30263168 13.61819977 2.30172028 14.75669373 2.30078125 15.9296875 C2.30506638 17.11160675 2.3093515 18.293526 2.31376648 19.51126099 C2.3195128 22.01791749 2.32000783 24.52459066 2.31567383 27.03125 C2.31254061 30.82582023 2.33587679 34.6195902 2.36132812 38.4140625 C2.45034871 71.68866508 2.45034871 71.68866508 -7 82 C-14.77935803 89.24089609 -21.80265789 92.56969362 -32.375 92.4375 C-33.64017456 92.42614014 -33.64017456 92.42614014 -34.9309082 92.41455078 C-41.06058055 92.25172672 -45.84102632 91.49408196 -51 88 C-51.67933594 87.59910156 -52.35867187 87.19820313 -53.05859375 86.78515625 C-58.95705278 82.93833514 -63.13978832 77.41850891 -66 71 C-65.68359375 68.6640625 -65.68359375 68.6640625 -65 67 C-64.54560547 67.99580078 -64.54560547 67.99580078 -64.08203125 69.01171875 C-61.58274978 74.27943508 -59.28869248 78.07890973 -55 82 C-55 82.66 -55 83.32 -55 84 C-53.9790625 84.4021875 -53.9790625 84.4021875 -52.9375 84.8125 C-50.75638175 85.69422865 -48.59198246 86.61755155 -46.4375 87.5625 C-38.64713763 90.8202879 -29.36338859 91.64784086 -21.375 88.5 C-20.26125 88.005 -19.1475 87.51 -18 87 C-17.01 87 -16.02 87 -15 87 C-15 86.34 -15 85.68 -15 85 C-13.948125 84.319375 -12.89625 83.63875 -11.8125 82.9375 C-5.65541971 78.72476085 -3.03149475 71.96856856 -1 65 C-0.71438143 61.8503035 -0.71438143 61.8503035 -0.77294922 58.53564453 C-0.77310028 57.27479034 -0.77325134 56.01393616 -0.77340698 54.71487427 C-0.78361783 53.35418537 -0.79404978 51.99349812 -0.8046875 50.6328125 C-0.80842176 49.22891441 -0.81126678 47.8250137 -0.81326294 46.42111206 C-0.82086696 42.74186903 -0.8404873 39.06278611 -0.8626709 35.38360596 C-0.88319929 31.62294683 -0.89227956 27.86226161 -0.90234375 24.1015625 C-0.92373657 16.73430233 -0.95783302 9.36717368 -1 2 C-3.31 1.67 -5.62 1.34 -8 1 C-8.33 13.21 -8.66 25.42 -9 38 C-13.5 35.75 -13.5 35.75 -15 32 C-14.34 32 -13.68 32 -13 32 C-12.67 32.66 -12.34 33.32 -12 34 C-11.98018066 33.14768799 -11.96036133 32.29537598 -11.93994141 31.41723633 C-11.86160496 28.23941676 -11.77490335 25.06196418 -11.68261719 21.88452148 C-11.64445712 20.51221419 -11.60958204 19.13981129 -11.578125 17.76733398 C-11.53219318 15.7886771 -11.47326363 13.81033558 -11.4140625 11.83203125 C-11.3826416 10.64327393 -11.3512207 9.4545166 -11.31884766 8.22973633 C-11.00534808 5.05417289 -10.52240041 2.79874661 -9 0 C-5.44712603 -1.18429132 -3.58589143 -0.99184231 0 0 Z " fill="#FDE7C6" transform="translate(111,15)"/>
<path d="M0 0 C2.475 0.495 2.475 0.495 5 1 C5 1.66 5 2.32 5 3 C5.9075 3.226875 6.815 3.45375 7.75 3.6875 C12.1539475 5.46601726 13.78952155 7.60501903 15.91015625 11.80078125 C19.62391635 20.97290504 19.30825335 31.52936145 16 40.75 C14.15858648 44.69816039 12.79380645 46.6745787 8.6875 48.25 C7.470625 48.4975 6.25375 48.745 5 49 C4.34 48.34 3.68 47.68 3 47 C3.40992188 46.39671875 3.81984375 45.7934375 4.2421875 45.171875 C4.78101563 44.37265625 5.31984375 43.5734375 5.875 42.75 C6.40867188 41.96109375 6.94234375 41.1721875 7.4921875 40.359375 C8.23855469 39.19148438 8.23855469 39.19148438 9 38 C9.39058594 37.40316406 9.78117188 36.80632812 10.18359375 36.19140625 C11.40911805 32.90184103 11.24819182 29.64693366 11.1875 26.1875 C11.18685547 25.50107422 11.18621094 24.81464844 11.18554688 24.10742188 C11.14760142 19.65093879 10.7185823 15.39772365 10 11 C8.68 11 7.36 11 6 11 C6 10.01 6 9.02 6 8 C5.34 8 4.68 8 4 8 C1.875 6.25 1.875 6.25 0 4 C0 2.68 0 1.36 0 0 Z " fill="#F6C00F" transform="translate(163,118)"/>
<path d="M0 0 C1.32 0 2.64 0 4 0 C6.73164712 8.50335314 7.90243674 17.89960213 4.7265625 26.4140625 C2.78737787 29.9991892 0.88664539 33.11335461 -2 36 C1.11227195 36 3.94152152 35.54372951 7 35 C5.71937515 36.7074998 4.38232443 38.37373596 3 40 C2.34 40 1.68 40 1 40 C0.86658203 40.92232422 0.86658203 40.92232422 0.73046875 41.86328125 C0 44 0 44 -1.63671875 45.23046875 C-11.64725796 49.90205371 -22.47375328 50.50874891 -33 47 C-39.55216285 43.8956743 -39.55216285 43.8956743 -41 41 C-35.73628638 40.49869394 -33.0909066 41.68831371 -29 45 C-29 45.66 -29 46.32 -29 47 C-19.1 46.505 -19.1 46.505 -9 46 C-8.34 44.68 -7.68 43.36 -7 42 C-4.875 41.25 -4.875 41.25 -3 41 C-3 40.01 -3 39.02 -3 38 C-3.99 38.66 -4.98 39.32 -6 40 C-8.54370117 40.22705078 -8.54370117 40.22705078 -11.54296875 40.1953125 C-13.15268555 40.18564453 -13.15268555 40.18564453 -14.79492188 40.17578125 C-15.91447266 40.15902344 -17.03402344 40.14226562 -18.1875 40.125 C-19.31865234 40.11597656 -20.44980469 40.10695312 -21.61523438 40.09765625 C-24.41036828 40.07406862 -27.20507845 40.041153 -30 40 C-30 39.34 -30 38.68 -30 38 C-30.78375 37.938125 -31.5675 37.87625 -32.375 37.8125 C-33.24125 37.544375 -34.1075 37.27625 -35 37 C-36.3125 34.4375 -36.3125 34.4375 -37 32 C-35.02 32.99 -33.04 33.98 -31 35 C-31 35.66 -31 36.32 -31 37 C-22.97593875 38.68927605 -15.05192211 38.19287735 -7 37 C-7 36.34 -7 35.68 -7 35 C-5.29365295 33.87316705 -3.58283851 32.75040524 -1.82421875 31.70703125 C1.96198386 28.16405365 2.89557032 24.03201097 3.3984375 19.0625 C3.40628016 17.70833351 3.39834462 16.35398797 3.375 15 C3.38660156 14.32710937 3.39820313 13.65421875 3.41015625 12.9609375 C3.38078598 7.88967146 2.19398464 4.45761959 0 0 Z " fill="#EEC234" transform="translate(169,129)"/>
<path d="M0 0 C3.46681458 3.24314913 4.92910809 5.12494715 5.11352539 10.00268555 C5.10828857 11.2019165 5.10305176 12.40114746 5.09765625 13.63671875 C5.09443359 14.93544922 5.09121094 16.23417969 5.08789062 17.57226562 C5.07953531 18.94401108 5.07107037 20.31575587 5.0625 21.6875 C5.05748335 23.07096195 5.05292073 24.45442563 5.04882812 25.83789062 C5.03702529 29.22530395 5.02056019 32.61263033 5 36 C4.34 36 3.68 36 3 36 C2.34 38.31 1.68 40.62 1 43 C0.401875 43.061875 -0.19625 43.12375 -0.8125 43.1875 C-3.87143458 44.3236757 -4.55041099 46.17330142 -6 49 C-6.66 48.67 -7.32 48.34 -8 48 C-7.37755401 46.72791378 -6.75193233 45.45738118 -6.125 44.1875 C-5.77695313 43.47980469 -5.42890625 42.77210938 -5.0703125 42.04296875 C-4 40 -4 40 -2 37 C-1.53967667 34.13353436 -1.53967667 34.13353436 -1.375 31 C-1.30023438 29.948125 -1.22546875 28.89625 -1.1484375 27.8125 C-1.04628938 25.87706201 -1 23.93813169 -1 22 C-2.32 21.67 -3.64 21.34 -5 21 C-4.67 19.68 -4.34 18.36 -4 17 C-3.34 17 -2.68 17 -2 17 C-1.27945952 11.33861055 -0.61726196 5.67355671 0 0 Z " fill="#06D708" transform="translate(104,140)"/>
<path d="M0 0 C5.7788448 3.47373973 9.53788909 6.91067711 12.10546875 13.265625 C12.41668172 15.99644868 12.58318384 18.42144178 12.54296875 21.140625 C12.53612061 21.84735352 12.52927246 22.55408203 12.5222168 23.28222656 C12.30059762 30.4769646 10.757926 34.73947524 5.48046875 39.765625 C3.10546875 41.265625 3.10546875 41.265625 1.10546875 41.265625 C1.10546875 41.925625 1.10546875 42.585625 1.10546875 43.265625 C-7.0405487 45.6792598 -14.8576428 46.64957803 -22.89453125 43.265625 C-22.89453125 42.605625 -22.89453125 41.945625 -22.89453125 41.265625 C-23.61640625 41.059375 -24.33828125 40.853125 -25.08203125 40.640625 C-29.57810608 38.44254397 -31.9958823 35.0629229 -34.20703125 30.640625 C-35.989908 21.88832097 -35.67932764 13.96361375 -30.89453125 6.265625 C-28.76953125 3.703125 -28.76953125 3.703125 -26.89453125 2.265625 C-26.23453125 2.265625 -25.57453125 2.265625 -24.89453125 2.265625 C-24.89453125 1.605625 -24.89453125 0.945625 -24.89453125 0.265625 C-16.24828627 -3.57715054 -8.64107934 -4.34348059 0 0 Z M-26.3203125 4.32421875 C-31.06413767 9.4669762 -33.55536155 13.60259227 -34.20703125 20.640625 C-33.64108783 27.20556867 -31.22873108 33.26462519 -26.89453125 38.265625 C-20.2743748 42.94666846 -13.89861155 44.39676999 -5.89453125 43.265625 C0.25588001 41.64404764 5.10340296 38.22070311 8.35546875 32.765625 C11.59029807 26.29596636 12.00031244 20.64633728 9.85546875 13.640625 C7.51977626 7.24191395 4.03205238 3.63564314 -1.89453125 0.265625 C-10.75250933 -2.7888502 -19.01618947 -1.87428823 -26.3203125 4.32421875 Z " fill="#FEF5BF" transform="translate(160.89453125,122.734375)"/>
<path d="M0 0 C5.54392302 3.92356974 8.80654691 7.76866631 10.6875 14.4375 C11.60218732 21.93793604 10.92285061 28.64932007 6.640625 35.0234375 C2.84828192 39.65635147 -1.03306738 42.79817965 -7 44 C-13.88955052 44.51179518 -21.00652829 44.87508947 -27 41 C-32.37363323 36.18973155 -36.34700951 30.75435771 -37.34765625 23.46875 C-37.78445476 15.49437721 -35.66049499 9.11167228 -30.3203125 3.11328125 C-22.10774805 -4.4240279 -9.68093109 -5.69466535 0 0 Z M-30.4375 5.375 C-34.82057179 12.73856061 -35.88759018 18.38797637 -35 27 C-33.91706133 30.42011272 -33.91706133 30.42011272 -32 33 C-31.13375 34.299375 -31.13375 34.299375 -30.25 35.625 C-25.65276564 40.47763627 -20.41007841 42.73254287 -13.8125 43.25 C-6.15965694 42.74817423 -0.4205591 40.4205591 5 35 C9.35162056 28.84770886 9.86737286 22.37754221 9 15 C6.42963898 7.35290933 2.84920484 3.11328893 -4.1875 -0.75 C-13.73172314 -4.4685285 -23.24423402 -1.63382326 -30.4375 5.375 Z " fill="#C7FBC7" transform="translate(91,123)"/>
<path d="M0 0 C0.66 0 1.32 0 2 0 C2 0.66 2 1.32 2 2 C4.31 2.33 6.62 2.66 9 3 C9 3.66 9 4.32 9 5 C12.93778511 4.8612922 16.87514223 4.71281508 20.8125 4.5625 C21.93205078 4.52318359 23.05160156 4.48386719 24.20507812 4.44335938 C25.81479492 4.38051758 25.81479492 4.38051758 27.45703125 4.31640625 C28.9416687 4.26141968 28.9416687 4.26141968 30.45629883 4.20532227 C33.1218351 4.09209669 33.1218351 4.09209669 36 3 C36 3.99 36 4.98 36 6 C35.38125 6.061875 34.7625 6.12375 34.125 6.1875 C33.073125 6.5896875 33.073125 6.5896875 32 7 C31.34 8.65 30.68 10.3 30 12 C23.4 12 16.8 12 10 12 C10 11.34 10 10.68 10 10 C9.2575 9.731875 8.515 9.46375 7.75 9.1875 C5.04360415 8.01882907 3.11977455 7.04406831 1 5 C0.25 2.3125 0.25 2.3125 0 0 Z " fill="#F9C00B" transform="translate(130,164)"/>
<path d="M0 0 C0.66 0 1.32 0 2 0 C2 1.65 2 3.3 2 5 C1.34 5 0.68 5 0 5 C0.15597656 5.79664063 0.31195313 6.59328125 0.47265625 7.4140625 C0.66730469 8.47367188 0.86195312 9.53328125 1.0625 10.625 C1.25972656 11.66914063 1.45695312 12.71328125 1.66015625 13.7890625 C2.01108946 17.10477629 1.6969615 19.75401145 1 23 C1.99 23.33 2.98 23.66 4 24 C4 24.99 4 25.98 4 27 C4.66 27 5.32 27 6 27 C6 27.99 6 28.98 6 30 C6.94875 30.061875 7.8975 30.12375 8.875 30.1875 C9.90625 30.455625 10.9375 30.72375 12 31 C13.375 33.5625 13.375 33.5625 14 36 C12.3125 37.125 12.3125 37.125 10 38 C7.3125 37.375 7.3125 37.375 5 36 C4.66666667 34.66666667 4.33333333 33.33333333 4 32 C3.21625 31.773125 2.4325 31.54625 1.625 31.3125 C-1.35319097 29.82340452 -1.63436691 29.35697323 -2.8125 26.375 C-4.12584403 21.80814463 -4.2801224 17.34363736 -4.3125 12.625 C-4.31805908 11.92294434 -4.32361816 11.22088867 -4.3293457 10.49755859 C-4.2770877 6.8001934 -4.10060727 5.15091091 -2 2 C-1.34 2 -0.68 2 0 2 C0 1.34 0 0.68 0 0 Z " fill="#05D905" transform="translate(51,131)"/>
<path d="M0 0 C1.32 0 2.64 0 4 0 C4 1.65 4 3.3 4 5 C2.68 5 1.36 5 0 5 C0.33 6.32 0.66 7.64 1 9 C0.34 9 -0.32 9 -1 9 C-1 9.66 -1 10.32 -1 11 C-1.99 11 -2.98 11 -4 11 C-3.835 11.54269531 -3.67 12.08539063 -3.5 12.64453125 C-2.91663093 15.39274648 -2.94004477 17.88084558 -3 20.6875 C-3.03751917 22.45793582 -3.04681559 24.22978561 -3 26 C-2.67 26.33 -2.34 26.66 -2 27 C-1.92741054 29.18639453 -1.91626217 31.37500389 -1.9375 33.5625 C-1.94652344 34.76003906 -1.95554687 35.95757812 -1.96484375 37.19140625 C-1.97644531 38.11824219 -1.98804688 39.04507813 -2 40 C-2.66 39.67 -3.32 39.34 -4 39 C-4 38.34 -4 37.68 -4 37 C-4.99 37 -5.98 37 -7 37 C-9.03654979 32.78143258 -9.2688992 29.28365288 -9.25 24.625 C-9.25515625 23.35914062 -9.2603125 22.09328125 -9.265625 20.7890625 C-8.81249367 14.32527735 -6.61961053 8.83458709 -4 3 C-3.01 3 -2.02 3 -1 3 C-0.67 2.01 -0.34 1.02 0 0 Z " fill="#F4700B" transform="translate(56,51)"/>
<path d="M0 0 C3.17826498 0.46511195 6.1202936 1.03867107 9.18359375 2.0234375 C13.42857249 3.10966543 17.1485496 3.29670609 21.5 3.25 C22.58087891 3.26160156 22.58087891 3.26160156 23.68359375 3.2734375 C28.47885624 3.25609478 32.44782059 2.50940686 37 1 C37.495 2.98 37.495 2.98 38 5 C37.030625 5.474375 36.06125 5.94875 35.0625 6.4375 C32.19522563 7.70193947 32.19522563 7.70193947 31 9 C29.26661436 9.0995443 27.52920917 9.13080346 25.79296875 9.1328125 C24.73142578 9.13410156 23.66988281 9.13539063 22.57617188 9.13671875 C21.45791016 9.13285156 20.33964844 9.12898437 19.1875 9.125 C18.08083984 9.12886719 16.97417969 9.13273438 15.83398438 9.13671875 C14.76857422 9.13542969 13.70316406 9.13414062 12.60546875 9.1328125 C11.62731201 9.13168457 10.64915527 9.13055664 9.64135742 9.12939453 C7.26924108 9.01318955 5.26754059 8.67586603 3 8 C3 7.34 3 6.68 3 6 C2.01 6 1.02 6 0 6 C0 4.02 0 2.04 0 0 Z " fill="#09D50A" transform="translate(57,190)"/>
<path d="M0 0 C1.06734375 0.96679688 1.06734375 0.96679688 2.15625 1.953125 C2.15625 2.613125 2.15625 3.273125 2.15625 3.953125 C3.14625 4.283125 4.13625 4.613125 5.15625 4.953125 C6.90625 7.390625 6.90625 7.390625 8.15625 9.953125 C7.82625 10.613125 7.49625 11.273125 7.15625 11.953125 C4.07535327 9.18031794 2.46849548 6.88986144 1.15625 2.953125 C-0.82375 2.953125 -2.80375 2.953125 -4.84375 2.953125 C-5.33875 1.468125 -5.33875 1.468125 -5.84375 -0.046875 C-11.15699873 -4.05409291 -16.89211151 -4.6812919 -23.34375 -4.796875 C-24.57738281 -4.84134766 -24.57738281 -4.84134766 -25.8359375 -4.88671875 C-27.83803533 -4.95655937 -29.84089156 -5.00407888 -31.84375 -5.046875 C-32.17375 -4.056875 -32.50375 -3.066875 -32.84375 -2.046875 C-35.8737814 -0.35569468 -38.99601064 1.02207322 -42.15625 2.453125 C-45.14175298 3.72335166 -45.14175298 3.72335166 -45.84375 6.953125 C-46.50375 6.953125 -47.16375 6.953125 -47.84375 6.953125 C-47.84375 7.943125 -47.84375 8.933125 -47.84375 9.953125 C-48.50375 10.283125 -49.16375 10.613125 -49.84375 10.953125 C-51.71361875 16.09526406 -52.15502397 20.70256016 -52.09375 26.140625 C-52.10148437 26.83865234 -52.10921875 27.53667969 -52.1171875 28.25585938 C-52.10275182 32.04883368 -51.74913891 34.67678553 -49.84375 37.953125 C-50.21875 40.203125 -50.21875 40.203125 -50.84375 41.953125 C-55.1976952 33.81314049 -56.62659928 24.40626423 -54.125 15.3515625 C-52.02907765 10.43290601 -49.19857759 6.10251702 -45.84375 1.953125 C-45.18375 1.953125 -44.52375 1.953125 -43.84375 1.953125 C-43.84375 1.293125 -43.84375 0.633125 -43.84375 -0.046875 C-31.09530487 -10.62537202 -12.98083865 -9.3433509 0 0 Z " fill="#31BF31" transform="translate(99.84375,118.046875)"/>
<path d="M0 0 C2.33294775 -0.04241723 4.66702567 -0.04092937 7 0 C8.77183695 1.77183695 8.15525538 4.33720391 8.17700195 6.73803711 C8.18983719 7.96699203 8.20267242 9.19594696 8.21589661 10.46214294 C8.22406944 11.81720578 8.23151213 13.17227318 8.23828125 14.52734375 C8.24235678 15.2089966 8.2464323 15.89064945 8.25063133 16.59295845 C8.2715296 20.20951156 8.28580791 23.82602645 8.29516602 27.44262695 C8.30616365 31.15801209 8.34047368 34.87278714 8.38033772 38.58795834 C8.40666253 41.45954905 8.41487236 44.33099894 8.41844749 47.20269966 C8.42328253 48.57048161 8.43480735 49.9382586 8.45348549 51.30592155 C8.56130705 59.73332292 7.89155858 66.44383231 4 74 C3.375 72.1875 3.375 72.1875 3 70 C3.66 69.01 4.32 68.02 5 67 C5.32965456 64.10882964 5.32965456 64.10882964 5.31884766 60.78442383 C5.33871735 59.5033223 5.35858704 58.22222076 5.37905884 56.90229797 C5.39093527 55.50387749 5.40259812 54.10545517 5.4140625 52.70703125 C5.43277261 51.27641174 5.45234591 49.84580329 5.4727478 48.41520691 C5.52409183 44.65221673 5.56370521 40.88919077 5.60089111 37.1260376 C5.64091664 33.28510672 5.69201557 29.444325 5.7421875 25.60351562 C5.83897361 18.06911272 5.92336961 10.53463771 6 3 C4.35 3.66 2.7 4.32 1 5 C0.67 15.23 0.34 25.46 0 36 C-0.33 36 -0.66 36 -1 36 C-1.02468447 31.19450253 -1.04285255 26.38904182 -1.05493164 21.58349609 C-1.05996621 19.94807289 -1.06679427 18.3126542 -1.07543945 16.67724609 C-1.08754335 14.32909025 -1.093237 11.98099381 -1.09765625 9.6328125 C-1.10281754 8.89942657 -1.10797882 8.16604065 -1.11329651 7.41043091 C-1.11387171 2.22774341 -1.11387171 2.22774341 0 0 Z " fill="#D5782C" transform="translate(103,16)"/>
<path d="M0 0 C1.09699219 0.55429688 2.19398437 1.10859375 3.32421875 1.6796875 C4.77859187 2.41156558 6.23302196 3.14333045 7.6875 3.875 C8.40873047 4.23980469 9.12996094 4.60460937 9.87304688 4.98046875 C17.02768301 8.5741216 21.94643253 10.96864983 30 9 C32.48925644 7.83771958 34.66965107 6.47430239 37 5 C37.66 5 38.32 5 39 5 C39 5.66 39 6.32 39 7 C39.66 7.33 40.32 7.66 41 8 C40.34 8 39.68 8 39 8 C39 8.66 39 9.32 39 10 C33.27982082 13.73744809 27.74412366 13.48207117 21.0625 13.4375 C20.00353516 13.45748047 18.94457031 13.47746094 17.85351562 13.49804688 C11.35579477 13.4939934 7.25581124 12.9165205 2 9 C0.5625 6.75 0.5625 6.75 0 5 C0.99 5 1.98 5 3 5 C3 4.34 3 3.68 3 3 C2.01 2.67 1.02 2.34 0 2 C0 1.34 0 0.68 0 0 Z " fill="#F46E0B" transform="translate(56,90)"/>
<path d="M0 0 C9.13214814 6.875791 13.73028054 14.06261735 15.33984375 25.38671875 C15.53049499 30.08987667 15.52565828 34.79256577 15.52514648 39.49902344 C15.52733066 41.7482401 15.5455136 43.99696376 15.56445312 46.24609375 C15.56738834 47.69661293 15.56937228 49.14713441 15.5703125 50.59765625 C15.57442139 51.90009277 15.57853027 53.2025293 15.58276367 54.54443359 C15.31605951 58.76291612 14.4788567 62.32667506 13.33984375 66.38671875 C13.00984375 66.38671875 12.67984375 66.38671875 12.33984375 66.38671875 C12.36079102 65.0706665 12.38173828 63.75461426 12.40332031 62.39868164 C12.47609275 57.48424292 12.52177853 52.56985119 12.55957031 47.6550293 C12.57960121 45.53385388 12.606834 43.4127331 12.64160156 41.29174805 C12.69049589 38.23081934 12.71289827 35.17062499 12.73046875 32.109375 C12.75111389 31.1715065 12.77175903 30.233638 12.79302979 29.26734924 C12.79521279 22.76254013 11.38659317 18.10317994 8.33984375 12.38671875 C8.00390198 11.67931046 7.66796021 10.97190216 7.32183838 10.24305725 C4.1406514 4.2294196 -3.74970083 0.28340343 -9.91796875 -1.96484375 C-17.65364179 -3.79407698 -25.88213545 -2.83336294 -33.66015625 -1.61328125 C-25.35216371 -9.92127379 -8.66683809 -5.25610005 0 0 Z " fill="#D1FDD0" transform="translate(97.66015625,114.61328125)"/>
<path d="M0 0 C6.98792434 4.15947877 11.93433675 9.16119897 14.41772461 17.02807617 C15.73604219 23.75674698 15.29995407 30.7339214 15.1875 37.5625 C15.17242639 39.15949259 15.15874272 40.75649894 15.14648438 42.35351562 C15.11368925 46.23602124 15.06205574 50.11785633 15 54 C12.68941015 50.35170023 12.65718401 46.79931605 12.5859375 42.609375 C12.56657135 41.90476135 12.5472052 41.20014771 12.5272522 40.47418213 C12.46767265 38.23290961 12.42115877 35.99158511 12.375 33.75 C12.33680021 32.22654062 12.29774731 30.70310238 12.2578125 29.1796875 C12.16198982 25.45331894 12.07787893 21.72679165 12 18 C11.34 17.67 10.68 17.34 10 17 C10.33 15.35 10.66 13.7 11 12 C9.68 12 8.36 12 7 12 C7.2165625 12.76183594 7.433125 13.52367187 7.65625 14.30859375 C9.39496913 20.75634386 10.33360656 26.32786876 10 33 C9.01 33.495 9.01 33.495 8 34 C7.89042969 32.90300781 7.78085938 31.80601563 7.66796875 30.67578125 C7.50844334 29.22128484 7.34825187 27.76686137 7.1875 26.3125 C7.11724609 25.59126953 7.04699219 24.87003906 6.97460938 24.12695312 C6.46175776 19.63437298 5.43859545 16.87799563 3 13 C3.33 12.01 3.66 11.02 4 10 C4.66 10 5.32 10 6 10 C5.80528889 8.05000871 5.80528889 8.05000871 5 6 C4.34 5.67 3.68 5.34 3 5 C1 4 1 4 0.25 1.875 C0.1675 1.25625 0.085 0.6375 0 0 Z " fill="#15B8EA" transform="translate(167,46)"/>
<path d="M0 0 C0.33 1.32 0.66 2.64 1 4 C-0.09699219 4.18175781 -1.19398438 4.36351562 -2.32421875 4.55078125 C-3.77873967 4.80414941 -5.2331617 5.05808573 -6.6875 5.3125 C-7.40873047 5.43044922 -8.12996094 5.54839844 -8.87304688 5.66992188 C-13.20767493 6.44184194 -16.27491728 7.53273742 -20 10 C-20.66 10 -21.32 10 -22 10 C-22.433125 11.2065625 -22.433125 11.2065625 -22.875 12.4375 C-24 15 -24 15 -26 16 C-26.66 15.67 -27.32 15.34 -28 15 C-28.33 17.64 -28.66 20.28 -29 23 C-29.66 22.34 -30.32 21.68 -31 21 C-30.75 18.25 -30.75 18.25 -30 15 C-29.79375 13.96875 -29.5875 12.9375 -29.375 11.875 C-27.40996512 7.76629071 -25.0384321 7.01921605 -21 5 C-20.34 4.34 -19.68 3.68 -19 3 C-12.66639113 0.67554422 -6.7175996 -0.38024149 0 0 Z " fill="#09BDF4" transform="translate(154,43)"/>
<path d="M0 0 C0.99 0.33 1.98 0.66 3 1 C2.43410156 1.30292969 1.86820313 1.60585938 1.28515625 1.91796875 C-3.41581954 4.40988637 -3.41581954 4.40988637 -6 8.8125 C-6 9.534375 -6 10.25625 -6 11 C-6.99 11 -7.98 11 -9 11 C-9.12375 11.928125 -9.2475 12.85625 -9.375 13.8125 C-10 17 -10 17 -12 20 C-13.15602919 24.15585177 -13.13359052 28.20474208 -13.125 32.5 C-13.12886719 34.43359375 -13.12886719 34.43359375 -13.1328125 36.40625 C-13.02135753 39.42209033 -12.70804225 42.07792088 -12 45 C-11.34 45 -10.68 45 -10 45 C-10.33 46.32 -10.66 47.64 -11 49 C-11.67154933 47.71086513 -12.33708859 46.41859796 -13 45.125 C-13.37125 44.40570313 -13.7425 43.68640625 -14.125 42.9453125 C-15 41 -15 41 -15 39 C-15.66 39 -16.32 39 -17 39 C-18.79634187 27.80927566 -17.563025 18.99919372 -11.07421875 9.53125 C-7.94277257 5.70982416 -4.41363695 2.29235408 0 0 Z " fill="#E0965A" transform="translate(61,43)"/>
<path d="M0 0 C0.70833984 0.00580078 1.41667969 0.01160156 2.14648438 0.01757812 C7.4648131 0.14968013 11.46096664 1.01173332 16.1875 3.375 C16.1875 4.365 16.1875 5.355 16.1875 6.375 C8.2675 6.375 0.3475 6.375 -7.8125 6.375 C-8.1425 7.035 -8.4725 7.695 -8.8125 8.375 C-10.7925 8.375 -12.7725 8.375 -14.8125 8.375 C-13.91409426 5.3530898 -13.22715872 3.70069277 -10.71875 1.73046875 C-7.09787415 0.04170004 -3.91521917 -0.07691263 0 0 Z " fill="#F2700F" transform="translate(75.8125,42.625)"/>
<path d="M0 0 C0.33 0 0.66 0 1 0 C1.07347656 1.84464844 1.07347656 1.84464844 1.1484375 3.7265625 C1.22351029 5.35939566 1.29905615 6.99220712 1.375 8.625 C1.4059375 9.43324219 1.436875 10.24148437 1.46875 11.07421875 C1.6952946 15.71838314 2.2592668 19.62693856 4 24 C3.83628906 23.36707031 3.67257813 22.73414062 3.50390625 22.08203125 C2.82546399 17.93248907 2.89444625 13.88358502 2.9375 9.6875 C2.94201172 8.85154297 2.94652344 8.01558594 2.95117188 7.15429688 C2.96289452 5.10283351 2.98082797 3.05140727 3 1 C3.33 1 3.66 1 4 1 C4.03738281 1.78761719 4.07476562 2.57523437 4.11328125 3.38671875 C4.59442683 11.35864066 5.31819969 19.42448715 8 27 C8.99 27.66 9.98 28.32 11 29 C11 29.66 11 30.32 11 31 C11.66 31 12.32 31 13 31 C13 31.99 13 32.98 13 34 C13.7425 34.268125 14.485 34.53625 15.25 34.8125 C17.86636554 35.94229421 19.80187111 37.20893202 22 39 C17.84850028 39.62272496 15.42663447 38.95956505 12.0625 36.625 C5.18293403 30.99986545 0.48362918 24.25281832 -0.796875 15.38671875 C-1.24464871 10.12537767 -1.29251137 5.17004547 0 0 Z " fill="#7ADDF7" transform="translate(116,64)"/>
<path d="M0 0 C-2.56345245 1.28172623 -3.27255975 0.70570132 -6 0 C-12.91121093 -0.51340424 -19.95953738 -0.82427499 -26 3 C-31.02874799 7.43308764 -34.41971719 12.81551617 -35.3515625 19.53515625 C-35.81088485 28.12931924 -32.66256634 34.00615049 -28 41 C-29.65 40.67 -31.3 40.34 -33 40 C-33 39.01 -33 38.02 -33 37 C-33.66 37 -34.32 37 -35 37 C-35.495 35.515 -35.495 35.515 -36 34 C-36.66 33.67 -37.32 33.34 -38 33 C-37.88509088 30.31173136 -37.75836801 27.62486531 -37.625 24.9375 C-37.5940625 24.18533203 -37.563125 23.43316406 -37.53125 22.65820312 C-37.27941541 17.81038719 -36.50831635 13.61691957 -35 9 C-34.34 9 -33.68 9 -33 9 C-33 8.01 -33 7.02 -33 6 C-32.34 6 -31.68 6 -31 6 C-30.67 4.68 -30.34 3.36 -30 2 C-29.34 2 -28.68 2 -28 2 C-28 1.34 -28 0.68 -28 0 C-26.68 0 -25.36 0 -24 0 C-24 -0.66 -24 -1.32 -24 -2 C-15.13496055 -3.1257193 -8.35801513 -3.51916427 0 0 Z " fill="#2AC329" transform="translate(90,121)"/>
<path d="M0 0 C0 0.33 0 0.66 0 1 C-1.65 1 -3.3 1 -5 1 C-5 0.34 -5 -0.32 -5 -1 C-7.58445773 -1.1081866 -10.16437352 -1.18737237 -12.75 -1.25 C-13.84441406 -1.30027344 -13.84441406 -1.30027344 -14.9609375 -1.3515625 C-18.57258806 -1.41722887 -20.51052126 -1.40994869 -23.33203125 0.953125 C-23.88246094 1.62859375 -24.43289062 2.3040625 -25 3 C-26.99571323 3.67939174 -28.99594773 4.34561559 -31 5 C-32.69774938 6.29352333 -34.36739286 7.62517293 -36 9 C-37.33333333 9.66666667 -38.66666667 10.33333333 -40 11 C-40.33 11.66 -40.66 12.32 -41 13 C-41.99 13 -42.98 13 -44 13 C-44.28875 13.94875 -44.5775 14.8975 -44.875 15.875 C-46 19 -46 19 -48 21 C-46.90873794 13.86289526 -42.88211276 8.20278277 -37.3125 3.6875 C-25.70634997 -4.20380277 -12.90992901 -5.25149654 0 0 Z " fill="#72D5EC" transform="translate(165,43)"/>
<path d="M0 0 C0 3 0 3 -1.5 6.625 C-4.07286174 13.31444052 -3.75996184 19.6293712 -0.984375 26.21484375 C1.40655525 30.55077679 5.97924963 35.0543738 10.796875 36.5625 C18.60110673 38.11227651 25.72815585 37.01646868 33 34 C31.1875 36 31.1875 36 29 38 C28.01 38 27.02 38 26 38 C26 38.66 26 39.32 26 40 C17.22622327 40.45820497 8.22358223 40.32494771 1.0625 34.6875 C0.381875 33.800625 -0.29875 32.91375 -1 32 C-1.6909375 31.13761719 -2.381875 30.27523437 -3.09375 29.38671875 C-5.50483552 25.10308936 -5.65074172 21.95322602 -5.5625 17.125 C-5.55734375 16.32723145 -5.5521875 15.52946289 -5.546875 14.70751953 C-5.35384474 8.51912181 -4.13279422 4.75271335 0 0 Z " fill="#93E3F2" transform="translate(131,58)"/>
<path d="M0 0 C0.33 0.99 0.66 1.98 1 3 C0.01 3 -0.98 3 -2 3 C-2 4.32 -2 5.64 -2 7 C-3.32 7 -4.64 7 -6 7 C-6 7.66 -6 8.32 -6 9 C-9.9875191 12.1157231 -13.15204673 12.38112887 -18.125 12.3125 C-19.95417969 12.30669922 -19.95417969 12.30669922 -21.8203125 12.30078125 C-25 12 -25 12 -28 10 C-27.34 9.01 -26.68 8.02 -26 7 C-23.71484375 6.55859375 -23.71484375 6.55859375 -20.9375 6.4375 C-16.42280258 6.15273591 -12.25681481 5.50585226 -7.875 4.40234375 C-6 4 -6 4 -3 4 C-2.67 3.01 -2.34 2.02 -2 1 C-1.34 0.67 -0.68 0.34 0 0 Z " fill="#0FD20F" transform="translate(97,162)"/>
<path d="M0 0 C0.66 1.32 1.32 2.64 2 4 C5.29236292 9.91470111 8.31452645 14.20220802 14.5625 17.25 C21.29428224 18.71875249 28.29144319 18.53865982 35 17 C35 17.66 35 18.32 35 19 C27.94920605 21.35026465 19.23917242 21.16583016 12.27734375 18.66015625 C9.4284024 17.21700956 6.69349192 15.71404031 4 14 C4.33 14.99 4.66 15.98 5 17 C4.34 17.33 3.68 17.66 3 18 C3.33 18.99 3.66 19.98 4 21 C3.34 21 2.68 21 2 21 C2 20.34 2 19.68 2 19 C1.360625 18.814375 0.72125 18.62875 0.0625 18.4375 C-2 17 -2 17 -2.75 13.375 C-2.8325 12.26125 -2.915 11.1475 -3 10 C-2.34 10.66 -1.68 11.32 -1 12 C-0.67 8.04 -0.34 4.08 0 0 Z " fill="#F37111" transform="translate(54,78)"/>
<path d="M0 0 C-1.2065625 0.6496875 -1.2065625 0.6496875 -2.4375 1.3125 C-5.27846354 2.80474002 -5.27846354 2.80474002 -6 6 C-3.03 6.495 -3.03 6.495 0 7 C-1.98 7.99 -1.98 7.99 -4 9 C-4 9.66 -4 10.32 -4 11 C-5.1446875 11.8971875 -5.1446875 11.8971875 -6.3125 12.8125 C-11.3567799 16.91830922 -12.4173426 20.97351213 -13.1875 27.3125 C-13.34605469 28.56675781 -13.50460938 29.82101563 -13.66796875 31.11328125 C-13.77753906 32.06589844 -13.88710938 33.01851562 -14 34 C-14.66 33.67 -15.32 33.34 -16 33 C-16 28.05 -16 23.1 -16 18 C-15.01 18 -14.02 18 -13 18 C-13 17.34 -13 16.68 -13 16 C-12.34 16 -11.68 16 -11 16 C-11.33 14.68 -11.66 13.36 -12 12 C-10.68 12 -9.36 12 -8 12 C-8 10.35 -8 8.7 -8 7 C-9.65 7.33 -11.3 7.66 -13 8 C-12.62642278 5.39611102 -12.28877098 4.25705243 -10.29296875 2.48046875 C-9.59816406 2.05378906 -8.90335938 1.62710938 -8.1875 1.1875 C-7.50042969 0.74792969 -6.81335937 0.30835938 -6.10546875 -0.14453125 C-3.60705494 -1.15965671 -2.48957835 -0.91191297 0 0 Z " fill="#E2792B" transform="translate(68,44)"/>
<path d="M0 0 C6.07048241 2.77778771 12.21413377 7.68795753 15.24609375 13.73828125 C18.85762475 24.57287425 18.55089357 34.64679663 14.11328125 45.0859375 C11.82727748 49.50361567 8.67005074 52.72886782 5 56 C4.34 56 3.68 56 3 56 C3 55.34 3 54.68 3 54 C3.70125 53.525625 4.4025 53.05125 5.125 52.5625 C10.81896576 47.48744356 14.11520814 40.53598582 15 33 C15.43036852 23.96226104 13.285631 15.81892547 8.125 8.25 C5.9261234 5.92177772 3.7335027 4.62532593 1 3 C0.67 2.01 0.34 1.02 0 0 Z " fill="#FCF5BE" transform="translate(167,115)"/>
<path d="M0 0 C1.32 0 2.64 0 4 0 C3.67 0.66 3.34 1.32 3 2 C2.34 2 1.68 2 1 2 C0.71145435 6.39226339 0.42678054 10.78475652 0.14550781 15.17749023 C0.04953573 16.66811701 -0.04744704 18.1586791 -0.14550781 19.64916992 C-0.28724426 21.80631185 -0.42560718 23.96363939 -0.5625 26.12109375 C-0.60769775 26.81625092 -0.65289551 27.51140808 -0.69946289 28.22763062 C-0.92879249 31.97302957 -1.00119935 35.66098379 -0.875 39.41015625 C-0.91625 40.59480469 -0.9575 41.77945313 -1 43 C-1.99 43.66 -2.98 44.32 -4 45 C-4.24234375 44.46890625 -4.4846875 43.9378125 -4.734375 43.390625 C-6.69412559 39.26007376 -8.46628972 36.02889453 -12 33 C-10.515 32.505 -10.515 32.505 -9 32 C-9 32.66 -9 33.32 -9 34 C-6.03 33.505 -6.03 33.505 -3 33 C-2.970271 31.6070874 -2.970271 31.6070874 -2.93994141 30.18603516 C-2.86191387 26.7454948 -2.77522538 23.30540109 -2.68261719 19.86523438 C-2.64430002 18.37541111 -2.60945192 16.88549446 -2.578125 15.39550781 C-2.53253271 13.25551952 -2.47453126 11.11617564 -2.4140625 8.9765625 C-2.3826416 7.68830566 -2.3512207 6.40004883 -2.31884766 5.07275391 C-2 2 -2 2 0 0 Z " fill="#F07211" transform="translate(105,19)"/>
<path d="M0 0 C2.96175123 0.61277612 4.38058783 1.25372522 7 3 C7 3.66 7 4.32 7 5 C7.99 5.33 8.98 5.66 10 6 C11.16796875 7.84765625 11.16796875 7.84765625 12.1875 10.0625 C12.53167969 10.79597656 12.87585938 11.52945313 13.23046875 12.28515625 C13.48441406 12.85105469 13.73835938 13.41695312 14 14 C14.99 13.67 15.98 13.34 17 13 C16.67 11.02 16.34 9.04 16 7 C16.66 7.33 17.32 7.66 18 8 C19.08179761 11.776086 19.10543987 15.40497142 19.0625 19.3125 C19.05347656 20.38113281 19.04445313 21.44976562 19.03515625 22.55078125 C19.02355469 23.35902344 19.01195313 24.16726562 19 25 C17.66666667 23 16.33333333 21 15 19 C14.67 21.64 14.34 24.28 14 27 C13.67 27 13.34 27 13 27 C12.84144531 26.0821875 12.68289062 25.164375 12.51953125 24.21875 C10.547956 13.84891772 7.77142334 7.10530134 0 0 Z " fill="#12CF11" transform="translate(90,122)"/>
<path d="M0 0 C1.24523437 0.02707031 2.49046875 0.05414063 3.7734375 0.08203125 C4.71445313 0.11683594 5.65546875 0.15164062 6.625 0.1875 C6.625 0.8475 6.625 1.5075 6.625 2.1875 C7.285 2.1875 7.945 2.1875 8.625 2.1875 C8.625 3.1775 8.625 4.1675 8.625 5.1875 C7.39523438 5.24808594 6.16546875 5.30867188 4.8984375 5.37109375 C3.26561573 5.45555005 1.63280373 5.54019547 0 5.625 C-0.80824219 5.66431641 -1.61648437 5.70363281 -2.44921875 5.74414062 C-6.82650865 5.97546082 -11.06047281 6.35670917 -15.375 7.1875 C-14.3472372 4.20698788 -13.47229552 3.24773056 -10.75 1.5625 C-6.89786717 -0.00688745 -4.13972324 -0.11716198 0 0 Z " fill="#F9C00D" transform="translate(151.375,113.8125)"/>
<path d="M0 0 C0 0.66 0 1.32 0 2 C-0.7425 2.70125 -1.485 3.4025 -2.25 4.125 C-9.44186969 11.64377285 -10.37159546 20.05093385 -10.21484375 30.0390625 C-9.79391956 37.799374 -6.7741734 43.00167958 -2 49 C-1.34 49.33 -0.68 49.66 0 50 C0 50.66 0 51.32 0 52 C-5.75112456 49.86995387 -8.81216258 44.87240385 -11.3125 39.5625 C-14.77096168 30.18936303 -14.17343881 19.61306317 -10.34765625 10.453125 C-4.60509554 0 -4.60509554 0 0 0 Z " fill="#FDF5C2" transform="translate(128,118)"/>
<path d="M0 0 C0.99 0.33 1.98 0.66 3 1 C3.06058594 1.62648438 3.12117188 2.25296875 3.18359375 2.8984375 C3.26738281 3.71570313 3.35117188 4.53296875 3.4375 5.375 C3.51871094 6.18710938 3.59992188 6.99921875 3.68359375 7.8359375 C3.89090114 10.04272805 3.89090114 10.04272805 5 12 C9.14093698 12.20970559 9.14093698 12.20970559 13 11 C12.67 11.99 12.34 12.98 12 14 C9.25 14.75 9.25 14.75 6 15 C3.6875 13.5 3.6875 13.5 2 11 C1.25 7.25 1.25 7.25 1 4 C0.2575 4.763125 -0.485 5.52625 -1.25 6.3125 C-7.3567526 12.28046277 -12.4051962 14.0754317 -20.875 14.3125 C-26.37830554 14.23625773 -30.95194644 13.14159848 -36 11 C-33.1715018 10.13941438 -32.2599921 9.90714568 -29.375 10.9375 C-21.87303653 13.29922924 -14.453257 12.01634006 -7 10 C-6.86335938 9.38640625 -6.72671875 8.7728125 -6.5859375 8.140625 C-5.86970363 5.52398394 -4.84092356 3.98253307 -3 2 C-2.01 2 -1.02 2 0 2 C0 1.34 0 0.68 0 0 Z " fill="#9EE7F2" transform="translate(170,93)"/>
<path d="M0 0 C0.66 0 1.32 0 2 0 C2.66 1.32 3.32 2.64 4 4 C4.66 4 5.32 4 6 4 C6.33 3.34 6.66 2.68 7 2 C7 2.99 7 3.98 7 5 C7.66 5 8.32 5 9 5 C9 5.99 9 6.98 9 8 C10.423125 8.0928125 10.423125 8.0928125 11.875 8.1875 C12.90625 8.455625 13.9375 8.72375 15 9 C16.375 11.5625 16.375 11.5625 17 14 C15.3125 15.125 15.3125 15.125 13 16 C10.3125 15.375 10.3125 15.375 8 14 C7.5 12 7.5 12 7 10 C6.195625 9.7525 5.39125 9.505 4.5625 9.25 C2 8 2 8 1.2265625 6.1015625 C0.73840783 4.08527147 0.36240428 2.04264232 0 0 Z " fill="#0FD00E" transform="translate(48,153)"/>
<path d="M0 0 C0.99 0.33 1.98 0.66 3 1 C1.02 1.99 1.02 1.99 -1 3 C-1 3.66 -1 4.32 -1 5 C-10.51621548 9.27180815 -19.8545282 10.85585332 -30 7.6875 C-33.21323924 6.44481079 -36.14005656 4.93738104 -39 3 C-38.34 2.67 -37.68 2.34 -37 2 C-35.8716272 2.70032349 -35.8716272 2.70032349 -34.72045898 3.41479492 C-31.6533179 5.20201085 -29.98414949 5.37440403 -26.47265625 5.36328125 C-25.43302734 5.36263672 -24.39339844 5.36199219 -23.32226562 5.36132812 C-22.24654297 5.34521484 -21.17082031 5.32910156 -20.0625 5.3125 C-18.4547168 5.31733398 -18.4547168 5.31733398 -16.81445312 5.32226562 C-11.51007887 5.28613676 -6.94554399 5.15883746 -2 3 C-2 2.34 -2 1.68 -2 1 C-1.34 0.67 -0.68 0.34 0 0 Z " fill="#DC7E33" transform="translate(97,97)"/>
<path d="M0 0 C3.39534138 3.39534138 3.06145411 7.77586649 3.125 12.375 C3.08159981 16.64991907 2.59381886 20.76904061 2 25 C2 25.66 2 26.32 2 27 C1.67 27.99 1.34 28.98 1 30 C0.34 29.67 -0.32 29.34 -1 29 C-1 29.66 -1 30.32 -1 31 C-1.66 31 -2.32 31 -3 31 C-3 30.34 -3 29.68 -3 29 C-4.65 29.33 -6.3 29.66 -8 30 C-6.36863369 27.22667728 -4.68515207 24.53698833 -2.875 21.875 C0.18951696 17.17607399 0.12413092 13.24076158 0.0625 7.8125 C0.05798828 7.06291016 0.05347656 6.31332031 0.04882812 5.54101562 C0.03706354 3.69397617 0.01912865 1.84697787 0 0 Z " fill="#34BEE7" transform="translate(171,64)"/>
<path d="M0 0 C5.78653063 1.27021404 9.46046093 4.37812253 13 9 C13.69921875 11.2265625 13.69921875 11.2265625 14 13 C13.29875 12.278125 12.5975 11.55625 11.875 10.8125 C9.07229255 8.00176187 6.07737208 5.50483774 3 3 C4.24546405 6.73639216 5.63404953 7.18756513 9 9 C8.67 10.32 8.34 11.64 8 13 C6.68 13 5.36 13 4 13 C4 12.34 4 11.68 4 11 C3.360625 10.773125 2.72125 10.54625 2.0625 10.3125 C0 9 0 9 -0.75 6.375 C-0.8325 5.59125 -0.915 4.8075 -1 4 C-2.32 3.67 -3.64 3.34 -5 3 C-3.35 2.34 -1.7 1.68 0 1 C0 0.67 0 0.34 0 0 Z " fill="#3ECDF6" transform="translate(165,44)"/>
<path d="M0 0 C0 0.66 0 1.32 0 2 C-1.65 2 -3.3 2 -5 2 C-5.33 14.21 -5.66 26.42 -6 39 C-10.5 36.75 -10.5 36.75 -12 33 C-11.34 33 -10.68 33 -10 33 C-9.67 33.66 -9.34 34.32 -9 35 C-8.98018066 34.14768799 -8.96036133 33.29537598 -8.93994141 32.41723633 C-8.86160496 29.23941676 -8.77490335 26.06196418 -8.68261719 22.88452148 C-8.64445712 21.51221419 -8.60958204 20.13981129 -8.578125 18.76733398 C-8.53219318 16.7886771 -8.47326363 14.81033558 -8.4140625 12.83203125 C-8.3826416 11.64327393 -8.3512207 10.4545166 -8.31884766 9.22973633 C-8.00534808 6.05417289 -7.52240041 3.79874661 -6 1 C-3 0 -3 0 0 0 Z " fill="#F6D9B4" transform="translate(108,14)"/>
<path d="M0 0 C-1.24231513 3.44025728 -2.49478685 6.30207814 -5 9 C-8.25144875 10.12998779 -11.33172268 10.10319378 -14.75 10.0625 C-15.73484375 10.05347656 -16.7196875 10.04445313 -17.734375 10.03515625 C-18.48203125 10.02355469 -19.2296875 10.01195313 -20 10 C-20.33 9.01 -20.66 8.02 -21 7 C-20.25234375 6.90203125 -19.5046875 6.8040625 -18.734375 6.703125 C-11.4322352 5.69315311 -11.4322352 5.69315311 -6 1 C-3.84227423 0.23844973 -2.27797004 0 0 0 Z " fill="#0DBDF2" transform="translate(168,93)"/>
<path d="M0 0 C5.26371362 -0.50130606 7.9090934 0.68831371 12 4 C12 4.66 12 5.32 12 6 C15.16794899 5.94750256 18.33329878 5.85229512 21.5 5.75 C22.386875 5.73582031 23.27375 5.72164062 24.1875 5.70703125 C30.51405447 5.47443734 34.46197392 4.01847367 40 1 C40.66 1.33 41.32 1.66 42 2 C32.36105126 7.80478913 22.95021969 9.71230511 11.75 7.25 C7.67477244 5.89159081 4.58854295 4.34353826 1 2 C0.67 1.34 0.34 0.68 0 0 Z " fill="#FCF5C0" transform="translate(128,170)"/>
<path d="M0 0 C1.890625 1.16796875 1.890625 1.16796875 3.890625 4.16796875 C3.25640625 3.96300781 2.6221875 3.75804687 1.96875 3.546875 C-7.96111824 0.68037989 -17.83245743 0.4624654 -28.109375 0.16796875 C-19.85083076 -5.33772741 -8.72752976 -3.77133322 0 0 Z " fill="#E7B482" transform="translate(92.109375,42.83203125)"/>
<path d="M0 0 C0.33 0 0.66 0 1 0 C1 2.64 1 5.28 1 8 C0.34 8 -0.32 8 -1 8 C-0.91228454 10.68893267 -0.80532075 13.37485308 -0.6875 16.0625 C-0.66494141 16.81466797 -0.64238281 17.56683594 -0.61914062 18.34179688 C-0.21755523 26.77509018 2.91769283 33.62609946 8.75 39.875 C9.1625 40.24625 9.575 40.6175 10 41 C9.01 41.495 9.01 41.495 8 42 C8 41.34 8 40.68 8 40 C7.01 39.67 6.02 39.34 5 39 C-2.90673997 29.31424354 -3.96922871 20.1277849 -3 8 C-2.27758277 5.01068731 -1.38075832 2.76151664 0 0 Z " fill="#E4C04A" transform="translate(120,128)"/>
<path d="M0 0 C0.66 0.33 1.32 0.66 2 1 C0.65438648 1.97030635 -0.70203594 2.92562775 -2.0625 3.875 C-2.81660156 4.40867188 -3.57070312 4.94234375 -4.34765625 5.4921875 C-10.37827085 8.92048976 -16.24754693 9.31797772 -23 9.25 C-23.76828125 9.25773438 -24.5365625 9.26546875 -25.328125 9.2734375 C-30.25405629 9.25668263 -34.32795306 8.56563275 -39 7 C-35.74699466 6.01700163 -32.88860814 5.92184479 -29.5 6.0078125 C-28.448125 6.02457031 -27.39625 6.04132813 -26.3125 6.05859375 C-24.1039963 6.102868 -21.89563539 6.15495329 -19.6875 6.21484375 C-18.635625 6.22902344 -17.58375 6.24320313 -16.5 6.2578125 C-15.06140625 6.29092529 -15.06140625 6.29092529 -13.59375 6.32470703 C-10.54839777 5.94346471 -9.28291279 4.99102204 -7 3 C-4.69354406 1.77378292 -2.46652579 0.91352807 0 0 Z " fill="#30C02F" transform="translate(99,192)"/>
<path d="M0 0 C2.73665871 0.30407319 5.00498241 1.00202648 7.5546875 2.0390625 C12.06677103 3.29753478 16.21891222 3.21615835 20.875 3.125 C21.75414063 3.11597656 22.63328125 3.10695312 23.5390625 3.09765625 C25.6928271 3.07424577 27.84645014 3.0383801 30 3 C30 3.99 30 4.98 30 6 C27.31222198 6.0544207 24.62556788 6.09387266 21.9375 6.125 C21.18533203 6.14175781 20.43316406 6.15851563 19.65820312 6.17578125 C14.74954233 6.21828048 10.70260498 5.58305514 6 4 C4.865625 3.62875 3.73125 3.2575 2.5625 2.875 C1.2940625 2.441875 1.2940625 2.441875 0 2 C0 3.98 0 5.96 0 8 C0.99 8 1.98 8 3 8 C3 8.66 3 9.32 3 10 C1.68 9.67 0.36 9.34 -1 9 C-1.625 5.625 -1.625 5.625 -2 2 C-1.34 1.34 -0.68 0.68 0 0 Z " fill="#38BF3A" transform="translate(57,188)"/>
<path d="M0 0 C0.66 0 1.32 0 2 0 C3.81181741 5.48679928 4.36900235 10.49226509 4.5625 16.25 C4.70973097 22.21049499 4.70973097 22.21049499 6 28 C5.01 27.67 4.02 27.34 3 27 C-0.35867502 18.33378915 -0.37054944 9.15394347 0 0 Z " fill="#06BFF6" transform="translate(120,64)"/>
<path d="M0 0 C4.41070387 2.83174601 7.32172277 6.29741223 9.82421875 10.8671875 C9.49421875 11.5271875 9.16421875 12.1871875 8.82421875 12.8671875 C8.48390625 12.33609375 8.14359375 11.805 7.79296875 11.2578125 C4.23866054 6.07759734 1.03307732 2.4825003 -5.17578125 0.8671875 C-15.07760048 -0.32251794 -20.99357068 1.41238045 -29.17578125 6.8671875 C-27.69933142 1.20746316 -27.69933142 1.20746316 -25.37573242 -0.30273438 C-18.19868299 -3.01075436 -7.13616611 -2.54549591 0 0 Z " fill="#BFF6FB" transform="translate(161.17578125,51.1328125)"/>
<path d="M0 0 C1.78515625 1.57421875 1.78515625 1.57421875 3 3 C-2.875 2.125 -2.875 2.125 -4 1 C-13.69672326 -0.0443642 -23.9451968 -0.49505762 -32.3203125 5.00390625 C-32.87460938 5.33261719 -33.42890625 5.66132812 -34 6 C-34.66 5.67 -35.32 5.34 -36 5 C-27.16914791 -3.83085209 -11.22204241 -3.85049896 0 0 Z " fill="#FCF4BF" transform="translate(164,112)"/>
<path d="M0 0 C0.66 0 1.32 0 2 0 C1.505 1.11375 1.01 2.2275 0.5 3.375 C-2.55806724 12.4193781 -1.83267775 23.73315363 0 33 C-2 32 -2 32 -3.1015625 29.4921875 C-4.18401439 25.28474408 -4.3677796 21.45001986 -4.375 17.125 C-4.39949219 16.36058594 -4.42398438 15.59617187 -4.44921875 14.80859375 C-4.47943888 8.87537489 -2.95765989 5.13206598 0 0 Z " fill="#33B0D4" transform="translate(121,56)"/>
<path d="M0 0 C0.83885742 -0.0103125 1.67771484 -0.020625 2.54199219 -0.03125 C8.57431219 0.10211357 12.53469956 1.60877786 17.75 4.625 C14.58856486 5.64721993 14.0671426 5.7870951 10.9375 4.1875 C4.9672496 1.42111242 -1.85604407 1.87080687 -8.25 2.625 C-11.14614345 3.72494195 -13.59176564 4.96716152 -16.19921875 6.62890625 C-18.25 7.625 -18.25 7.625 -20.51953125 7.27734375 C-21.09058594 7.06207031 -21.66164062 6.84679687 -22.25 6.625 C-14.90036312 1.60573579 -8.77181575 0.02592336 0 0 Z " fill="#EAC54E" transform="translate(150.25,111.375)"/>
<path d="M0 0 C3.83901145 1.10904775 6.43432628 1.90445888 9 5 C13.00601594 12.81106118 14.8514111 21.73694073 12.31640625 30.3125 C11.5 32.25 11.5 32.25 10 35 C9.34 34.67 8.68 34.34 8 34 C8.2165625 33.43152344 8.433125 32.86304688 8.65625 32.27734375 C11.68100279 23.88925615 11.76474227 17.16934191 8 9 C5.74941063 5.6423246 2.92962377 2.77543304 0 0 Z " fill="#DA7E38" transform="translate(90,52)"/>
<path d="M0 0 C2.60625249 1.30312624 2.68827536 2.16780365 3.61328125 4.8984375 C5.89513648 12.9603225 5.31688834 21.32624366 5.1875 29.625 C5.17242441 31.31379014 5.1587411 33.0025933 5.14648438 34.69140625 C5.11370964 38.79459729 5.06208718 42.8971521 5 47 C4.67 47 4.34 47 4 47 C3.98541748 46.09870361 3.97083496 45.19740723 3.95581055 44.26879883 C3.89401489 40.85955671 3.81973806 37.45102552 3.73754883 34.04223633 C3.70470763 32.57912094 3.6765552 31.11589122 3.65356445 29.65258789 C3.51303193 20.93658135 2.87191454 12.93603602 0.63208008 4.44799805 C0 2 0 2 0 0 Z " fill="#D7FFFF" transform="translate(179,57)"/>
<path d="M0 0 C1.98 0.99 3.96 1.98 6 3 C6 3.66 6 4.32 6 5 C14.02406125 6.68927605 21.94807789 6.19287735 30 5 C29.67 5.99 29.34 6.98 29 8 C21.74 8 14.48 8 7 8 C7 7.34 7 6.68 7 6 C6.21625 5.938125 5.4325 5.87625 4.625 5.8125 C3.75875 5.544375 2.8925 5.27625 2 5 C0.6875 2.4375 0.6875 2.4375 0 0 Z " fill="#EBC23F" transform="translate(132,161)"/>
<path d="M0 0 C0.66 0 1.32 0 2 0 C1.85879286 1.93784265 1.71187127 3.87526955 1.5625 5.8125 C1.48128906 6.89144531 1.40007812 7.97039062 1.31640625 9.08203125 C1 12 1 12 0 15 C-0.66 15 -1.32 15 -2 15 C-1.67 11.7 -1.34 8.4 -1 5 C-2.155 5.969375 -3.31 6.93875 -4.5 7.9375 C-8.73673638 11.15288029 -11.73937877 11.81212067 -17 12 C-16.484375 11.7525 -15.96875 11.505 -15.4375 11.25 C-13.36554929 10.18746118 -11.38020179 9.05551546 -9.375 7.875 C-6 6 -6 6 -4 6 C-4 5.34 -4 4.68 -4 4 C-3.34 4 -2.68 4 -2 4 C-1.34 2.68 -0.68 1.36 0 0 Z " fill="#BBF7BA" transform="translate(100,164)"/>
<path d="M0 0 C3.58038291 -0.5265269 4.91260597 -0.05644198 8 1.9375 C12.51706913 6.02270464 15.95385254 11.97908747 17 18 C17.06743348 20.08234592 17.08514472 22.16668557 17.0625 24.25 C17.05347656 25.32765625 17.04445312 26.4053125 17.03515625 27.515625 C17.02355469 28.33546875 17.01195312 29.1553125 17 30 C16.67 30 16.34 30 16 30 C15.91363281 29.09378906 15.82726562 28.18757813 15.73828125 27.25390625 C14.87179788 19.74173393 14.06760179 12.88807065 9 7 C6.67859601 5.16157268 4.34540088 3.59273135 1.79296875 2.09375 C1.20128906 1.7328125 0.60960937 1.371875 0 1 C0 0.67 0 0.34 0 0 Z " fill="#34B3D5" transform="translate(158,50)"/>
<path d="M0 0 C0.52464844 0.20496094 1.04929688 0.40992188 1.58984375 0.62109375 C9.93015761 3.52146912 18.25908128 3.70593197 27 4 C26.67 4.66 26.34 5.32 26 6 C19.4 6 12.8 6 6 6 C6 5.34 6 4.68 6 4 C5.195625 3.71125 4.39125 3.4225 3.5625 3.125 C1 2 1 2 0 0 Z " fill="#EEC335" transform="translate(134,170)"/>
<path d="M0 0 C-8.42647735 3.41944009 -16.39061098 4.6250059 -25 1 C-25 0.67 -25 0.34 -25 0 C-21.58382503 -0.1972935 -18.16705407 -0.38112295 -14.75 -0.5625 C-13.29787109 -0.64661133 -13.29787109 -0.64661133 -11.81640625 -0.73242188 C-10.88183594 -0.78076172 -9.94726562 -0.82910156 -8.984375 -0.87890625 C-8.12553711 -0.9260376 -7.26669922 -0.97316895 -6.38183594 -1.02172852 C-4.07335735 -1.00066921 -2.20243733 -0.66206871 0 0 Z " fill="#30B5DD" transform="translate(163,103)"/>
<path d="M0 0 C0.495 0.99 0.495 0.99 1 2 C-1.60116891 7.08410288 -4.61710851 9.68009454 -9.80078125 12.08984375 C-17.17393696 14.18745704 -27.20060026 14.7627107 -34 11 C-33.43603516 11.02094727 -32.87207031 11.04189453 -32.29101562 11.06347656 C-29.69419751 11.14748501 -27.09766638 11.19892229 -24.5 11.25 C-23.1696875 11.30027344 -23.1696875 11.30027344 -21.8125 11.3515625 C-14.58455402 11.45785582 -9.29931712 10.02847766 -3.90625 5.078125 C-3.4421875 4.47484375 -2.978125 3.8715625 -2.5 3.25 C-2.0153125 2.63640625 -1.530625 2.0228125 -1.03125 1.390625 C-0.6909375 0.93171875 -0.350625 0.4728125 0 0 Z " fill="#C6FBC8" transform="translate(98,179)"/>
<path d="M0 0 C0.66 0 1.32 0 2 0 C1.17122721 2.41097538 0.32171235 4.56932056 -1.2109375 6.62109375 C-5.90330067 12.92730437 -5.88141862 19.32455093 -6 27 C-6.33 27 -6.66 27 -7 27 C-7.02895225 23.70835171 -7.0467823 20.41673601 -7.0625 17.125 C-7.07506836 15.71927734 -7.07506836 15.71927734 -7.08789062 14.28515625 C-7.09111328 13.38925781 -7.09433594 12.49335937 -7.09765625 11.5703125 C-7.10289307 10.74289551 -7.10812988 9.91547852 -7.11352539 9.06298828 C-7 7 -7 7 -6 5 C-5.01 5 -4.02 5 -3 5 C-1.96986723 3.35178756 -0.96885372 1.68496298 0 0 Z " fill="#28B4DC" transform="translate(132,53)"/>
<path d="M0 0 C0.66 0 1.32 0 2 0 C2.02578125 0.76183594 2.0515625 1.52367187 2.078125 2.30859375 C2.46588975 9.36767469 3.65086477 14.77619037 7 21 C7.33 21.66 7.66 22.32 8 23 C6.35 22.67 4.7 22.34 3 22 C2.51171875 19.98177083 2.0234375 17.96354167 1.53515625 15.9453125 C1.05153008 13.9414343 1.05153008 13.9414343 0 12 C-0.07065617 9.95944995 -0.08421976 7.91665743 -0.0625 5.875 C-0.05347656 4.77929688 -0.04445313 3.68359375 -0.03515625 2.5546875 C-0.02355469 1.71164063 -0.01195313 0.86859375 0 0 Z " fill="#EEC332" transform="translate(124,138)"/>
<path d="M0 0 C0.66 0.33 1.32 0.66 2 1 C0.74054645 2.67528263 -0.53293682 4.34002614 -1.8125 6 C-2.87404297 7.3921875 -2.87404297 7.3921875 -3.95703125 8.8125 C-4.63121094 9.534375 -5.30539063 10.25625 -6 11 C-6.99 11 -7.98 11 -9 11 C-9.28875 11.94875 -9.5775 12.8975 -9.875 13.875 C-11 17 -11 17 -13 19 C-11.96211667 12.06449728 -7.97271776 6.39604853 -2.625 1.9375 C-1.75875 1.298125 -0.8925 0.65875 0 0 Z " fill="#99DFED" transform="translate(130,45)"/>
<path d="M0 0 C0.50789063 0.40992187 1.01578125 0.81984375 1.5390625 1.2421875 C9.57474165 7.53228841 15.86870989 8.58633307 26 8 C27.67330354 7.70176495 29.3433426 7.37996729 31 7 C31 7.66 31 8.32 31 9 C23.40297619 11.53234127 13.38138284 11.20164513 6.125 7.8125 C2.39656439 5.82189455 1.28005714 4.00859998 0 0 Z " fill="#D78542" transform="translate(58,88)"/>
<path d="M0 0 C2.475 0.495 2.475 0.495 5 1 C5 1.66 5 2.32 5 3 C6.32 3.33 7.64 3.66 9 4 C9 5.32 9 6.64 9 8 C5.68847126 8.36794764 4.39390748 8.29809215 1.6875 6.25 C0 4 0 4 0 0 Z " fill="#F9C00A" transform="translate(163,118)"/>
<path d="M0 0 C3.3682869 3.3682869 3.08590707 7.85876001 3.3125 12.4375 C3.28790256 17.2749962 1.69151426 20.04683844 -1 24 C-1.66 23.67 -2.32 23.34 -3 23 C-2.50886719 22.01902344 -2.01773438 21.03804687 -1.51171875 20.02734375 C0.29578943 15.80982466 0.34911529 12.09187203 0.1875 7.5625 C0.17396484 6.83095703 0.16042969 6.09941406 0.14648438 5.34570312 C0.11153874 3.56347578 0.05774805 1.78163427 0 0 Z " fill="#9DE1EE" transform="translate(171,64)"/>
<path d="M0 0 C1 2 1 2 0.75 3.9375 C-0.10729256 6.29505455 -1.24763032 7.24763032 -3 9 C-4.24121254 13.00186773 -4.33848061 17.09278779 -4.5625 21.25 C-4.60568359 21.99507812 -4.64886719 22.74015625 -4.69335938 23.5078125 C-4.79896725 25.338349 -4.89994201 27.16915176 -5 29 C-5.33 29 -5.66 29 -6 29 C-7.63468075 18.81638072 -7.01199958 9.99996472 -1.0234375 1.36328125 C-0.51683594 0.68845703 -0.51683594 0.68845703 0 0 Z " fill="#FFEAD0" transform="translate(50,53)"/>
<path d="M0 0 C0.66 0.33 1.32 0.66 2 1 C-1.625 4 -1.625 4 -5 4 C-5 4.66 -5 5.32 -5 6 C-16.52164009 6.3690205 -16.52164009 6.3690205 -22 4 C-18.78179732 3.02021932 -16.03628924 2.98290145 -12.6875 3.125 C-7.59591283 3.19987628 -4.52128864 2.21254551 0 0 Z " fill="#9DE2EF" transform="translate(162,92)"/>
<path d="M0 0 C1.93166016 0.01740234 1.93166016 0.01740234 3.90234375 0.03515625 C5.19269531 0.04417969 6.48304687 0.05320313 7.8125 0.0625 C8.81152344 0.07410156 9.81054688 0.08570313 10.83984375 0.09765625 C11.16984375 0.75765625 11.49984375 1.41765625 11.83984375 2.09765625 C8.91329848 3.07317134 6.89329379 3.26243713 3.83984375 3.28515625 C2.54046875 3.30642578 2.54046875 3.30642578 1.21484375 3.328125 C-1.16015625 3.09765625 -1.16015625 3.09765625 -4.16015625 1.09765625 C-3.16015625 0.09765625 -3.16015625 0.09765625 0 0 Z " fill="#FC6E07" transform="translate(73.16015625,43.90234375)"/>
<path d="M0 0 C2.96175123 0.61277612 4.38058783 1.25372522 7 3 C7 3.66 7 4.32 7 5 C7.99 5.33 8.98 5.66 10 6 C12.76159346 9.63367561 12.14498705 13.65038836 12 18 C11.67 18 11.34 18 11 18 C10.84144531 17.41992188 10.68289062 16.83984375 10.51953125 16.2421875 C8.42185816 9.21903891 5.32646415 5.04612393 0 0 Z " fill="#31C130" transform="translate(90,122)"/>
<path d="M0 0 C3.40320742 1.01176437 4.75725331 1.64843582 6.8125 4.625 C7.204375 5.40875 7.59625 6.1925 8 7 C6.68 7 5.36 7 4 7 C4 6.34 4 5.68 4 5 C3.38125 5.350625 2.7625 5.70125 2.125 6.0625 C1.42375 6.371875 0.7225 6.68125 0 7 C-0.66 6.67 -1.32 6.34 -2 6 C-2 5.01 -2 4.02 -2 3 C-1.34 3 -0.68 3 0 3 C0 2.01 0 1.02 0 0 Z " fill="#E27521" transform="translate(92,46)"/>
<path d="M0 0 C0.99 0.33 1.98 0.66 3 1 C1.71034824 2.37562854 0.37310707 3.70766393 -1 5 C-1.66 5 -2.32 5 -3 5 C-3 5.66 -3 6.32 -3 7 C-5.8125 8.5625 -5.8125 8.5625 -9 10 C-9.99 9.67 -10.98 9.34 -12 9 C-9.44325365 6.01712925 -6.47561059 4.7378053 -3 3 C-1.18445841 1.43897509 -1.18445841 1.43897509 0 0 Z " fill="#ECBF39" transform="translate(173,164)"/>
<path d="M0 0 C0 0.66 0 1.32 0 2 C-5.94 2 -11.88 2 -18 2 C-18.33 1.34 -18.66 0.68 -19 0 C-12.97127109 -2.0095763 -6.15025498 -1.29479052 0 0 Z " fill="#32AFD7" transform="translate(160,42)"/>
<path d="M0 0 C0.66 0.66 1.32 1.32 2 2 C-4.27 2 -10.54 2 -17 2 C-13.91271496 -0.05819003 -12.64024762 -0.35931563 -9.0625 -0.6875 C-7.78052734 -0.81705078 -7.78052734 -0.81705078 -6.47265625 -0.94921875 C-4.04801865 -0.99901383 -2.27767 -0.81169665 0 0 Z " fill="#32B9E1" transform="translate(156,48)"/>
<path d="M0 0 C2.9375 0.8125 2.9375 0.8125 6 2 C6.33 2.99 6.66 3.98 7 5 C5.02 5.99 5.02 5.99 3 7 C1.68 6.01 0.36 5.02 -1 4 C-0.67 2.68 -0.34 1.36 0 0 Z " fill="#06D608" transform="translate(58,162)"/>
<path d="M0 0 C5.27790097 -0.50265724 7.86225252 0.74891269 12 4 C12 4.33 12 4.66 12 5 C8.8125 5.3125 8.8125 5.3125 5 5 C2.0625 2.5 2.0625 2.5 0 0 Z " fill="#F3DE87" transform="translate(128,170)"/>
<path d="M0 0 C0.99 0 1.98 0 3 0 C3.66 1.65 4.32 3.3 5 5 C4.34 5 3.68 5 3 5 C3 4.34 3 3.68 3 3 C2.34 3 1.68 3 1 3 C1.66 4.98 2.32 6.96 3 9 C2.01 8.67 1.02 8.34 0 8 C0 7.34 0 6.68 0 6 C-0.99 5.67 -1.98 5.34 -3 5 C-2.34 4.67 -1.68 4.34 -1 4 C-0.34786708 1.97536745 -0.34786708 1.97536745 0 0 Z " fill="#F6C01B" transform="translate(129,161)"/>
<path d="M0 0 C0.33 0 0.66 0 1 0 C1 2.64 1 5.28 1 8 C0.34 8 -0.32 8 -1 8 C-1 12.95 -1 17.9 -1 23 C-1.33 23 -1.66 23 -2 23 C-2.05413245 20.10391407 -2.09373641 17.20884805 -2.125 14.3125 C-2.14175781 13.49587891 -2.15851563 12.67925781 -2.17578125 11.83789062 C-2.2114802 7.42907071 -2.07580814 4.01268424 0 0 Z " fill="#EFC12F" transform="translate(120,128)"/>
<path d="M0 0 C5.64530154 3.36029853 10.93676131 7.43055581 12.875 13.9375 C12.91625 14.618125 12.9575 15.29875 13 16 C10.96673985 13.45842481 8.94341293 10.92396112 7 8.3125 C5.19322143 5.91606658 5.19322143 5.91606658 2.8125 4.9375 C1 4 1 4 0.25 1.875 C0.1675 1.25625 0.085 0.6375 0 0 Z " fill="#2CADD0" transform="translate(167,46)"/>
<path d="M0 0 C0 0.66 0 1.32 0 2 C-0.54269531 2.26554687 -1.08539063 2.53109375 -1.64453125 2.8046875 C-2.71767578 3.33449219 -2.71767578 3.33449219 -3.8125 3.875 C-4.52019531 4.22304688 -5.22789062 4.57109375 -5.95703125 4.9296875 C-8.21246418 6.0656486 -8.21246418 6.0656486 -11 8 C-9.54205607 2.41121495 -9.54205607 2.41121495 -7.1875 0.625 C-4.69940916 -0.0858831 -2.57533152 -0.14307397 0 0 Z " fill="#7DD7ED" transform="translate(143,50)"/>
<path d="M0 0 C-0.33 0.99 -0.66 1.98 -1 3 C-5.455 3.495 -5.455 3.495 -10 4 C-10.66 3.01 -11.32 2.02 -12 1 C-7.95858806 0.36605303 -4.0934693 -0.12404452 0 0 Z " fill="#05D804" transform="translate(82,114)"/>
<path d="M0 0 C3.465 1.98 3.465 1.98 7 4 C6.67 5.32 6.34 6.64 6 8 C3.5625 7.625 3.5625 7.625 1 7 C0.67 6.34 0.34 5.68 0 5 C0.99 5 1.98 5 3 5 C3 4.34 3 3.68 3 3 C2.01 2.67 1.02 2.34 0 2 C0 1.34 0 0.68 0 0 Z " fill="#F36C06" transform="translate(56,90)"/>
<path d="M0 0 C3.96 0.33 7.92 0.66 12 1 C10 3 10 3 7.3984375 3.1953125 C6.40070313 3.17210937 5.40296875 3.14890625 4.375 3.125 C2.87066406 3.09792969 2.87066406 3.09792969 1.3359375 3.0703125 C0.56507812 3.04710937 -0.20578125 3.02390625 -1 3 C-0.67 2.01 -0.34 1.02 0 0 Z " fill="#03DA02" transform="translate(73,170)"/>
<path d="M0 0 C0.33 0.99 0.66 1.98 1 3 C0.01 3 -0.98 3 -2 3 C-2 4.32 -2 5.64 -2 7 C-4.31 7.33 -6.62 7.66 -9 8 C-8.67 7.01 -8.34 6.02 -8 5 C-6.35 4.67 -4.7 4.34 -3 4 C-2.67 3.01 -2.34 2.02 -2 1 C-1.34 0.67 -0.68 0.34 0 0 Z " fill="#08D507" transform="translate(97,162)"/>
<path d="M0 0 C0.33 0 0.66 0 1 0 C1 1.98 1 3.96 1 6 C0.01 6.495 0.01 6.495 -1 7 C-2.0409066 8.64142963 -3.04504326 10.30712215 -4 12 C-4.66 11.67 -5.32 11.34 -6 11 C-5.37755401 9.72791378 -4.75193233 8.45738118 -4.125 7.1875 C-3.77695313 6.47980469 -3.42890625 5.77210938 -3.0703125 5.04296875 C-2 3 -2 3 0 0 Z " fill="#0FD413" transform="translate(102,177)"/>
<path d="M0 0 C3.7910119 1.44950455 7.3874638 3.15172566 11 5 C11 5.33 11 5.66 11 6 C8.3125 6.3125 8.3125 6.3125 5 6 C2.125 3.5625 2.125 3.5625 0 1 C0 0.67 0 0.34 0 0 Z " fill="#69C8DF" transform="translate(127,97)"/>
<path d="M0 0 C0.6875 1.75 0.6875 1.75 1 4 C-0.4375 6.25 -0.4375 6.25 -2 8 C-3.65 7.67 -5.3 7.34 -7 7 C-4.66666667 4.66666667 -2.33333333 2.33333333 0 0 Z " fill="#E27C2D" transform="translate(97,88)"/>
<path d="M0 0 C2.65197185 2.65197185 3.584501 5.55356766 5 9 C5.33 9.66 5.66 10.32 6 11 C4.35 10.67 2.7 10.34 1 10 C0.67 6.7 0.34 3.4 0 0 Z " fill="#EAC843" transform="translate(126,150)"/>
<path d="M0 0 C2 0 2 0 4.125 1.875 C6 4 6 4 6 6 C6.66 6 7.32 6 8 6 C8 6.66 8 7.32 8 8 C4.82461668 7.65978036 3.97723135 6.97533396 1.75 4.5625 C0 2 0 2 0 0 Z " fill="#2FB5DB" transform="translate(121,89)"/>
<path d="M0 0 C2 1 2 1 3.125 3 C4.30338431 7.04017477 4.16384045 10.82206849 4 15 C3.67 15 3.34 15 3 15 C2.49733206 12.87562952 1.9979439 10.75048274 1.5 8.625 C1.2215625 7.44164063 0.943125 6.25828125 0.65625 5.0390625 C0 2 0 2 0 0 Z " fill="#98DFEE" transform="translate(179,57)"/>
<path d="M0 0 C0.33 0 0.66 0 1 0 C0.52060632 4.71403788 0.03165952 8.66579301 -2 13 C-3.2380014 9.42355152 -2.74926071 6.66305234 -2 3 C-1.34 3 -0.68 3 0 3 C0 2.01 0 1.02 0 0 Z " fill="#28C227" transform="translate(109,173)"/>
<path d="M0 0 C0.33 1.32 0.66 2.64 1 4 C-0.28745036 4.38922918 -1.58019597 4.76098036 -2.875 5.125 C-3.95394531 5.43824219 -3.95394531 5.43824219 -5.0546875 5.7578125 C-5.69664063 5.83773437 -6.33859375 5.91765625 -7 6 C-7.66 5.34 -8.32 4.68 -9 4 C-7.88625 3.525625 -6.7725 3.05125 -5.625 2.5625 C-3.73289006 1.74693537 -1.84287291 0.92143645 0 0 Z " fill="#2DC32C" transform="translate(93,162)"/>
<path d="M0 0 C0.66 0 1.32 0 2 0 C2 1.65 2 3.3 2 5 C0.02 5.99 0.02 5.99 -2 7 C-2.66 6.34 -3.32 5.68 -4 5 C-2.71937515 3.2925002 -1.38232443 1.62626404 0 0 Z " fill="#F9BE06" transform="translate(170,160)"/>
<path d="M0 0 C0.66 0 1.32 0 2 0 C3.85776765 3.13498292 4.20140476 5.37471432 4 9 C0.06153846 5.67692308 0.06153846 5.67692308 -0.25 2.25 C-0.1675 1.5075 -0.085 0.765 0 0 Z " fill="#FC6906" transform="translate(50,82)"/>
<path d="M0 0 C2.4375 0.75 2.4375 0.75 5 2 C5.625 4.0625 5.625 4.0625 6 6 C6.99 6.33 7.98 6.66 9 7 C5 7 5 7 3.515625 5.72265625 C0 1.11111111 0 1.11111111 0 0 Z " fill="#36C133" transform="translate(50,161)"/>
<path d="M0 0 C0.33 0 0.66 0 1 0 C1.36122881 1.31057393 1.71380311 2.62353624 2.0625 3.9375 C2.25972656 4.66839844 2.45695312 5.39929688 2.66015625 6.15234375 C2.77230469 6.76207031 2.88445313 7.37179688 3 8 C2.67 8.33 2.34 8.66 2 9 C1.63239269 11.32817964 1.29758419 13.6618385 1 16 C0.67 16 0.34 16 0 16 C0 10.72 0 5.44 0 0 Z " fill="#0BD20E" transform="translate(47,136)"/>
<path d="M0 0 C0.33 0.66 0.66 1.32 1 2 C1.66 2 2.32 2 3 2 C4.6875 4.375 4.6875 4.375 6 7 C5.67 7.66 5.34 8.32 5 9 C2.5 6.75 2.5 6.75 0 4 C0 2.68 0 1.36 0 0 Z " fill="#7DD4E7" transform="translate(126,80)"/>
<path d="M0 0 C1.32 0 2.64 0 4 0 C4 1.32 4 2.64 4 4 C2.35 4.33 0.7 4.66 -1 5 C-1.33 4.34 -1.66 3.68 -2 3 C-1.34 2.01 -0.68 1.02 0 0 Z " fill="#F96E06" transform="translate(56,51)"/>
<path d="M0 0 C0.66 0.33 1.32 0.66 2 1 C-3.75 6 -3.75 6 -6 6 C-6 6.66 -6 7.32 -6 8 C-6.66 7.67 -7.32 7.34 -8 7 C-5.42215154 4.35247996 -3.08351902 2.05567935 0 0 Z " fill="#FAEDAC" transform="translate(168,158)"/>
<path d="M0 0 C1 2 1 2 0.3125 4.5625 C-1 7 -1 7 -3.125 7.8125 C-3.74375 7.874375 -4.3625 7.93625 -5 8 C-3.8141763 4.62496331 -2.72426311 2.35277269 0 0 Z " fill="#ECC650" transform="translate(126,120)"/>
<path d="M0 0 C1.32 0 2.64 0 4 0 C7 4.07142857 7 4.07142857 7 7 C6.34 7 5.68 7 5 7 C5 6.34 5 5.68 5 5 C4.360625 4.731875 3.72125 4.46375 3.0625 4.1875 C1 3 1 3 0 0 Z " fill="#DD7F37" transform="translate(51,92)"/>
<path d="M0 0 C1 2 1 2 0.75 3.9375 C-0.1113709 6.30626998 -1.12387019 7.34900577 -3 9 C-3.66 9.66 -4.32 10.32 -5 11 C-4.46884894 6.48521602 -2.63379708 3.65333143 0 0 Z " fill="#F6D8B8" transform="translate(50,53)"/>
<path d="M0 0 C0.33 0.99 0.66 1.98 1 3 C-0.4375 5.6875 -0.4375 5.6875 -2 8 C-3.32 7.67 -4.64 7.34 -6 7 C-5.195625 6.21625 -4.39125 5.4325 -3.5625 4.625 C-1.01309583 2.28017144 -1.01309583 2.28017144 0 0 Z " fill="#32C133" transform="translate(98,181)"/>
<path d="M0 0 C0.99 0.33 1.98 0.66 3 1 C1.71034824 2.37562854 0.37310707 3.70766393 -1 5 C-1.66 5 -2.32 5 -3 5 C-3 5.66 -3 6.32 -3 7 C-3.66 6.67 -4.32 6.34 -5 6 C-3.35 4.02 -1.7 2.04 0 0 Z " fill="#E7C54C" transform="translate(173,164)"/>
<path d="M0 0 C2.12038635 2.61514317 4.13091744 5.19637616 6 8 C4.35 7.67 2.7 7.34 1 7 C0.67 4.69 0.34 2.38 0 0 Z " fill="#36C539" transform="translate(56,154)"/>
<path d="M0 0 C0.33 0.99 0.66 1.98 1 3 C0.01 3.99 -0.98 4.98 -2 6 C-2.66 4.68 -3.32 3.36 -4 2 C-2.68 1.34 -1.36 0.68 0 0 Z " fill="#06DA02" transform="translate(60,120)"/>
<path d="M0 0 C1.73662334 3.22515763 2.8905928 6.51329166 4 10 C3.34 10 2.68 10 2 10 C2 9.34 2 8.68 2 8 C1.34 8 0.68 8 0 8 C0 5.36 0 2.72 0 0 Z " fill="#DA8338" transform="translate(54,78)"/>
<path d="M0 0 C1.65 0 3.3 0 5 0 C2.75 2.0625 2.75 2.0625 0 4 C-2.3125 3.75 -2.3125 3.75 -4 3 C-2.68 2.67 -1.36 2.34 0 2 C0 1.34 0 0.68 0 0 Z " fill="#2BC22B" transform="translate(91,169)"/>
<path d="M0 0 C1.65 0 3.3 0 5 0 C3.02 2.97 3.02 2.97 1 6 C0.4465236 3.92446352 0 2.15634036 0 0 Z " fill="#DD7E33" transform="translate(101,91)"/>
</svg>
